<svg version="1.1" id="Ebene_1" xmlns="http://www.w3.org/2000/svg" x="0" y="0" viewBox="0 0 330 106.5" xml:space="preserve"><style>.shadow-primary-textlogo{fill:#303f8b}.main-textlogo{fill:#4352af}.st10{fill:#d27489}.st11{fill:#b96678}.st12{fill:#00aeae}</style><path d="M324.8 61.7v6h-18.2v-5.1l8.3-6.9h-8.3v-6h18.2v5l-8.3 6.9h8.3zm-13.6 15.1v9.1h-4.6V70.7h18.2v14.8h-4.6v-8.8h-2.1v7.7h-4.4v-7.7h-2.5zm-4.6 15.5h13.5V87h4.8v16.8h-4.8v-5.3h-13.5v-6.2zM209 103.8l-3.6-9.4h-20.6l-3.6 9.4h-18.5l23.6-54.1h17.9l23.6 54.1H209zm-19.2-22.6h10.5L195 67.6l-5.2 13.6zm61.1 23.8c-4.5 0-8.8-.5-13.1-1.5-4.3-1-7.7-2.4-10.5-4.1l5.9-13.3c2.6 1.5 5.5 2.7 8.7 3.6 3.2.9 6.3 1.4 9.2 1.4 2.5 0 4.3-.2 5.4-.7 1.1-.5 1.6-1.2 1.6-2.2 0-1.1-.7-2-2.1-2.6-1.4-.6-3.7-1.2-7-1.9-4.2-.9-7.6-1.8-10.4-2.8-2.8-1-5.2-2.7-7.3-4.9-2.1-2.3-3.1-5.4-3.1-9.3 0-3.4 1-6.5 2.9-9.3 1.9-2.8 4.8-5 8.5-6.6 3.8-1.6 8.4-2.4 13.8-2.4 3.7 0 7.4.4 10.9 1.2 3.6.8 6.7 2 9.5 3.5l-5.5 13.2c-5.3-2.7-10.3-4-15.1-4-4.7 0-7 1.1-7 3.4 0 1.1.7 1.9 2.1 2.4 1.4.5 3.7 1.1 6.9 1.7 4.1.8 7.6 1.7 10.4 2.7 2.8 1 5.3 2.6 7.4 4.9 2.1 2.3 3.1 5.4 3.1 9.3 0 3.4-1 6.5-2.9 9.2-1.9 2.8-4.8 4.9-8.5 6.6-3.8 1.7-8.4 2.5-13.8 2.5zm30.6-1.2V49.7h18.2v54.1h-18.2zm-236 0v-40H29.6V49.7h49.9v14.1H63.7v40H45.5zm108.4-55.7l17.3-1-14.1 55-19.5 1.1-10.4-28.3-7.5 29.4-19.5 1.1-20.4-53 18.7-1.1 11.2 30.2 8.2-31.3 16.7-1 11.2 30.5 8.1-31.6z" fill="#fff"/><path d="M18.7 76.1c-4-.4-6.7-1.5-9.2-3.8-3.3-2.9-4.7-6-5.5-12.1-.3-2.5-.3-6.5 0-9.4.9-7.4 4-15.1 8.9-22.2 2.4-3.5 6.4-8.2 9.2-10.9.2-.1.8-.7 1.3-1.3 2.9-2.8 6.6-5.8 9.7-7.8 4-2.6 7.6-4.1 11.5-5 1.1-.3 1.7-.3 3.4-.4 2.2-.2 3.4-.2 5 .1 4 .6 7.6 2.3 10.9 5 1 .8 2 1.7 2.6 2.3l.5.4V9.5c0-.8 0-1.8.1-2.1.3-2 1.4-4.1 2.9-5.4.8-.7 1.1-.9 1.9-1.1 1.6-.5 2.6-.3 6.3.9 3.2 1 6.9 2.7 9.5 4.2 6.1 3.7 10.4 8.6 12.5 14.4.6 1.6 1 3.9.9 5.6-.1 1.2-.3 2.9-.7 4-.2.8-1.1 2.9-1.2 2.9 0 0-.1.1-.1.2-.1.3-1 1.6-1.5 2.2-2.1 2.6-4.8 4.2-8.3 5-1.2.3-4.4.4-5.6.3-3.5-.4-6.5-1.1-9.9-2.4-.6-.2-1.1-.4-1.1-.4v3.7h.8c1.8-.1 3.3.1 4.1.7.6.4 1 1.1.9 1.7-.1 1.2-1.2 2.4-2.6 2.9l-.4.1.3.5c.2.4.3.6.3 1.1 0 1.1-.5 1.8-1.6 2.4-.6.3-.8.4-1.5.4-1 .1-1.4 0-2.2-.4-.8-.4-1.4-.7-1.8-.8-.3 0-.4 0-1.2.5-1.9 1.2-3.4 1.6-4.7 1.1-.8-.4-1.4-1.2-1.4-2.1 0-.9.7-1.9 1.6-2.2.6-.2 1.1-.5 1.2-.6l-.2-.8c-.2-.4-.4-1.1-.6-1.6-.3-1.1-.9-3-1-3.4-.1-.2-.1-.3-.2-.2-3.1 1.1-4.7 1.5-7.7 2-2.1.4-3.3.5-7.2.7l-3.5.2v1.2c-.1.2 0 .2.6.2 1.4-.1 2.5.2 3.2.9.4.4.8 1.1.8 1.6 0 .7-.4 1.6-1.1 2-.6.4-2.1.8-3.3.9-.9.1-1.1.1-1.5-.1l-.5-.2-.2.3c-.3.6-.8 1-1.5 1.4-.6.3-.6.3-1.6.3-.8 0-1.2 0-1.7-.1-.8-.2-2.4-.8-2.9-1.2-.2-.1-.4-.3-.5-.3-.1 0-.5.3-1 .6-2.5 1.6-4.3 2.4-5.8 2.3-.7 0-1.3-.2-1.8-.7-.6-.5-.8-.9-.8-1.8 0-1 .1-1.4.7-2.1.5-.6 1-.8 2.1-1.1 2.2-.6 4-1.6 5.4-3.1.6-.7 1.4-1.8 1.3-1.9 0 0-.7-.1-1.5-.2-1.8-.2-4.4-.6-5.3-.8-.9-.2-1.4-.1-2.6.1-5.1 1.2-8.3 3.8-10.8 8.7-.7 1.4-1.3 2.7-1.5 3.6-.3 1-.2 2.4.2 3.5 1 2.8 3.3 5 5.7 5.5.3.1.6.1.8.1h.2l-.2-1.2c-.3-2.9.4-5.3 1.8-6.8 2-2 5.1-1.8 7.6.6.4.4.9.9 1.1 1.2 2 2.8 3.2 7.6 2.5 10.5-1 4.2-4.1 7.1-8.7 8.1-.7.2-1.4.2-2.7.3-.9.1-1.8.1-1.9.1z" fill="#1a2036"/><path class="shadow-primary-textlogo" d="M18.8 74.4c-2.5-.2-4.4-.8-6.3-1.9-1-.6-1-.6-2.2-1.7-2.5-2.3-3.7-4.7-4.5-9.5-.4-2.6-.5-6.6-.2-9.5.5-4.5 1.5-8.4 3.4-12.7 1-2.5 2.6-5.4 3.7-7.1.2-.3.5-.9.7-1.1.2-.3.6-.8.8-1.2.3-.4.7-1 1-1.4.3-.4.6-.8.8-1 .1-.2.5-.6.7-.9 2.6-3.3 6.5-7.5 10.2-10.7.4-.4.9-.8 1-.9.2-.1.7-.6 1.3-1.1.1-.1.4-.3.6-.5.7-.6 3.1-2.3 4.3-3.1 3.5-2.3 6.5-3.6 9.8-4.6 1.7-.5 3-.7 5-.8 2.4-.1 4 .1 6.3.7 3.4.9 6.9 2.9 9.8 5.8 1.7 1.7 3.6 4.1 5.1 6.4.3.5.6.9.6.9s-.2-.7-.5-1.6c-.4-1.4-.7-2.7-1.1-4.4-.2-1.2-.4-4.3-.2-5.1.3-1.8 1.7-3.9 3-4.7.5-.3.6-.3 1.6-.3 1.1-.1 1.1-.1 2.6.4 4.4 1.3 7.7 2.7 11 4.7 2.3 1.4 5 3.5 6.7 5.4.4.4.8.9.9 1 .7.8 2 2.7 2.8 4.1.6 1.1 1 2 1.4 3.3 1.4 4 .7 8.6-1.7 12-2.1 3.1-5 4.9-8.7 5.5-1 .2-3.8.3-4.9.1-1-.1-2.5-.3-2.6-.4-.1 0-.2-.1-.3-.1-.8 0-6.2-1.6-6.9-2.2-.1-.1-.3-.1-.3-.1-.2 0-1.1-.4-2.1-.9-.9-.4-1.4-.7-1.6-.7-.1 0-.3.2-.4.4-.4.4-1.7 1.4-2.1 1.6-.1.1-.3.2-.3.3-.3.6.6 6.6 1.4 9.2l.2.5h1.3c.7 0 1.6 0 1.9.1.5.1 1.7.6 2 .8.1 0 .2.2.4.2.3.2.7.7.7 1 0 .6-.8 1.2-1.8 1.2-.5 0-.6 0-1-.2-.5-.3-1.6-.8-2.2-.9-.8-.2-1.3-.1-1.9.4-1.3.9-2.3 1.4-3.1 1.3-.6 0-1-.2-1-.6 0-.3.2-.6.6-.7 1.2-.5 2.1-1.2 2.1-1.9.1-.6 0-.7-.3-1.6-.2-.4-.3-.9-.3-1 0-.1 0-.2-.1-.2 0 0-.1-.2-.1-.3 0-.2-.1-.4-.1-.4-.1 0-.4-1.2-.8-2.7-.3-1.1-.3-1.4-.5-2.3-.3-1.7-.4-2.6-.6-4.6-.1-2-.2-2.2-.6-2.6-.2-.2-.6-.2-.8 0-.3.3-.3 1.7-.1 3.9.1 1 .2 2.1.3 2.3.1.3.1.7.1.9v.4l-1 .3c-1.6.6-3.9 1.2-5.7 1.5-3.5.7-8.1 1-12.4 1h-1.4c-.3 0-.2-.3.5-1.5.4-.7.8-1.4.9-1.5.1-.1.2-.3.2-.4.1-.1.8-1.9 1-2.5.3-.8.8-2.6 1-3.3.6-3-.2-5.5-2.2-6.6-.8-.4-1.3-.5-2.2-.5-1.5.1-3.5 1-5.9 2.8-1.1.8-1 .8-1.8 1.7-.8.9-1.3 1.7-1.9 3-.6 1.2-.5 1.5.3 1.4.4 0 .7-.3 1.1-1.1.4-.8 1.4-2.2 2.1-2.8l.7-.7c.7-.7 2.3-1.7 3.3-2.1 1.2-.5 2.5-.7 3.3-.5.7.2 1.5 1.1 1.7 2 .5 1.7.1 4.1-.9 6.6-.6 1.5-1.6 3.5-2.2 4.3-.1.2-.3.5-.4.6-.1.1-.5.7-1 1.4s-1.1 1.4-1.2 1.6c-.2.2-.4.5-.5.6-.4.5-1.1 1.7-1.3 2.2-.2.6-.3 1 0 1.1.1 0 .6.1 1.1.2.5.1 1.2.2 1.5.3.6.1 1.5.5 1.6.8.1.2.1.7-.1 1-.1.3-.6.7-.8.7-.1 0-.1.1-.1.1 0 .2-1.5.2-2.2 0-.6-.1-1.7-.6-1.8-.7 0-.1-.1-.1-.9-.5-.4-.2-.6-.2-1-.2-.5 0-1.4.4-1.8.7-.3.3-1.4 1-1.9 1.2-.3.1-.7.3-.9.4-1 .5-2.2.7-2.7.4-.4-.2-.6-.7-.6-1 0-.1.2-.4.4-.6.3-.4.4-.4 1.2-.7 2-.6 3.2-1.1 4.2-1.8.2-.2.5-.3.7-.4.1-.1.3-.1.3-.2 0 0 .1-.2.3-.4.9-.9 1.2-1.2 1.7-2 .7-1 1.1-1.8 1.4-2.7l.2-.7-1-.1c-.6-.1-1.1-.1-1.2-.2-.1 0-.4-.1-.6-.1-.2 0-.5 0-.7-.1-.5-.1-1.3-.2-3-.4-.7-.1-1.3-.2-1.3-.2-.1 0-.2-.1-.4-.1s-.6-.1-.9-.1c-.8-.2-1.2-.2-2.4.1-2.8.5-5.5 1.7-7.7 3.4-.3.2-.6.4-.6.5-.3.2-2.4 2.8-2.8 3.3-1.6 2.5-2.8 5.2-3.2 6.9-.1.8-.1 2.4.2 3.3.8 2.9 3.1 5.6 5.7 6.8.4.2 1.2.4 2 .6.5.1 2.6.2 2.7.1 0 0 0-.4-.1-.8-.2-1.1-.4-3.8-.3-4.5.2-1.9.9-3.2 2-3.8.5-.3 1.4-.4 2.2-.2.7.1 1.1.3 1.8.8 1.5 1.1 2.6 2.8 3.3 5.1.5 1.6.6 2 .6 3.6.1 1.4.1 1.6-.1 2.2-.8 2.9-2.8 5.1-5.7 6.1-2.2.5-4.5.8-6.3.7z"/><path class="shadow-primary-textlogo" d="M43.6 49.1c-.5 0-.7-.2-.9-.5-.1-.2-.2-.4-.3-.4-.1 0-.3-.3-.5-.5-.6-.7-1.5-1.1-2.6-1.4-.3-.1-.7-.3-.7-.4 0-.1.4-.7 1.2-1.7l.6-.8H42c.1 0 .3 0 .5.1s.2.2.3.6c0 .4-.2 1.3-.5 1.4-.2.1-.1.4.2.6.2.2.4.2 1.6.1 1.3-.1 2 0 2.3.2.1.1.2.1.3.1.2 0 .5.5.6 1 0 .3 0 .4-.2.6-.3.3-1.5.7-3 .9-.1.1-.4.1-.5.1zm30.1-3.5c-.1 0-.3-.1-.3-.1s0-.1-.1-.1-.3-.1-.6-.3c-.3-.2-.6-.3-.7-.2h-.5c-.2-.1-.7-.1-1.1-.1-.6 0-.7-.1-.9-.3-.1-.1-.2-.3-.2-.5 0-.1 0-.2-.1-.3l-.2-.6c0-.3-.1-.8-.2-1.1-.3-1.5-.6-3.9-.5-4.2 0-.1.2-.3.3-.4.2-.1.4-.3.6-.5.4-.3.7-.4 1.2-.1.2.1.4.2.5.3.3.2.4 1 .5 3.4 0 1.2.1 2.3.2 2.4.1.2.2.2 1.1.1 1.6-.2 3.3-.1 4 .2.7.3.7.8.1 1.5-.5.5-1 .7-1.9.8-.5.1-1 .1-1.2.1z"/><path d="M19.7 74.4h-.6c-1.6-.1-2.5-.3-4.5-.9-.2-.1-.4-.2-.6-.2-.1-.1-.3-.1-.3-.1-.1 0-.4-.2-1.5-.9-.1 0-.2-.1-.3-.2s-.3-.2-.5-.3c-.4-.3-1.8-1.5-1.8-1.6 0 0-.2-.3-.5-.7-.3-.3-.6-.7-.6-.7 0-.1-.2-.3-.3-.5-.4-.6-.6-1-.6-1.1 0 0-.1-.3-.2-.5-.5-.9-1.2-3.2-1.3-4.5 0-.2-.1-.5-.1-.6-.4-1.7-.6-7.6-.3-9.5 0-.1.1-.4.1-.6.1-.9.7-4.4.9-5.2.1-.2.2-.7.3-1.2.1-.4.2-.8.3-.9l.2-.6c.1-.3.2-.7.3-.9.1-.2.2-.6.3-.8-.2-.2-.1-.4-.1-.5.1-.2.2-.6.6-1.5.5-1.2.7-1.8.8-1.9.1-.1.1-.1.1-.2s.1-.3.2-.5.3-.6.4-.9c.3-.6.3-.7.7-1.3l.2-.4.8-1.4c.5-.8.8-1.4.8-1.5 0 0 .1-.2.3-.3.1-.1.3-.3.2-.4 0-.1.1-.2.2-.3l.2-.2.2-.4c.1-.2.3-.3.2-.4 0-.1 0-.1.1-.1 0 0 .2-.2.3-.4.1-.2.3-.4.3-.5.1 0 .1-.1.1-.1s.1-.3.3-.5c.2-.2.3-.4.3-.5 0 0 .1-.2.2-.3.1-.1.3-.4.5-.6.1-.2.4-.5.6-.7.2-.2.4-.5.5-.7.4-.5 1.7-2.1 2.7-3.2 1.2-1.4 2.3-2.5 4-4.1l.7-.7c.9-.9 2.5-2.4 3-2.7.1-.1.3-.2.4-.3.1-.1.3-.3.5-.4.2-.1.4-.3.6-.5.5-.5 3.3-2.6 4.7-3.5 1.3-.8 3.1-1.9 3.3-1.9.1 0 .1.1.1.2s0 .1.1-.1c0-.1.2-.3.5-.5.5-.3.5-.3 1.4-.6.3-.1.8-.3 1-.5.3-.1.6-.2.7-.3.1 0 .3-.1.3-.1.1 0 .2-.1.3-.1.1 0 .8-.2 1.6-.5 2.4-.8 5-1.1 7.2-1 1.4.1 3 .3 3.6.5 1.5.4 2.2.6 2.2.7 0 0 .1.1.2.1.3 0 2.6 1.1 3.7 1.7.6.3 1.3.8 1.6 1.1l.6.4c.1 0 2.9 2.5 2.9 2.6 0 .1 0 .1.1.1s1.4 1.4 2.2 2.4l.5.6v.2l-.2.3.2-.2.2-.2.1.2c.1.1.2.3.2.3 0 .1.1.2.2.3.5.7.7 1 1.5 2.3.4.7.5.9.6.7v-.3c0-.1-.1-.5-.1-1s-.1-1.1-.2-1.5c-.1-.7-.1-3.1.1-4.4.2-1.7.7-3.7 1.3-5.1.5-1.1 1.3-2.4 2.1-3.2l.7-.8 1.3.3c.6.3 1.2.5 1.3.5.1 0 .4.1.6.2.2.1.5.2.6.2.1 0 .4.1.5.2.9.4 1.5.6 1.5.6.1 0 3.4 1.5 3.8 1.7.2.1.5.3.8.4.3.2.6.3.6.4.2.1.5.2.8.5l.4.2s.2.1.3.2c.1.1.6.4 1 .7.4.3.9.6 1.2.8.2.2.5.4.6.4.4.2 2.5 2 3.1 2.8.2.2.5.5.5.6 1 1.1 2.4 2.9 3 4 .1.2.3.5.3.6.1.2.7 1.3.8 1.5 0 .1.1.3.2.5.4.8 1 2.6 1.2 3.7.1.5.2 2.8.2 3.3 0 .2-.1.5-.1.8-.1 1.2-.9 3.6-1.5 4.6-.2.4-.4.6-.4.8-.3.8-3 3.8-3.4 3.8 0 0-.2.1-.3.2-.3.3-.8.5-1.2.7-.3.1-.6.1-2.7 0-1.8-.1-5.4-.7-7-1.1-.2-.1-.7-.2-1.1-.3-1.3-.3-3-.9-5.1-1.7-.5-.2-2.5-1.1-2.6-1.1 0 0-.3-.2-.6-.3-1-.5-3.1-1.8-4.1-2.5-.9-.6-1-.7-1.3-.7-.4 0-1 .5-1.2 1.1-.4.9-.5 2.7-.3 4.6.1.6.2 1.7.2 2.3.1 1.5.3 3.1.5 3.9 0 .2.1.5.1.7 0 .2.2 1.1.5 2.3.1.2.2.7.3 1.1.1.4.2.7.2.7h1.3c.9 0 1.4 0 2 .1.8.2 1.5.5 1.5.6 0 .1-.3.2-.6.3-.5.2-.8.3-1.8.3-1.1.1-2.7-.1-3-.2-.1-.1-.5-1-.7-1.9-.1-.2-.3-.9-.5-1.6-.5-1.5-1.2-4.3-1.5-6-.2-.9-.2-1.6-.3-3.7-.1-2.5-.1-2.6-.3-3.2-.2-.4-.3-.6-.6-.8-.3-.2-.4-.3-1-.2-.6 0-.7 0-1.5.6-3.3 2.1-6.5 3.4-10.5 4.2-1.6.3-5.4.7-5.6.5 0-.1 0-.2.2-.9.1-.2.1-.3.1-.4 0-.1 0-.2.1-.2 0 0 .1-.2.1-.3 0-.1.1-.6.2-1 .2-.9.2-1.4.2-2.5-.1-1.2-.1-1.5-.6-2.4-.5-1-1.2-1.6-2.3-2.1-.5-.2-.7-.3-1.3-.2-.8 0-1.7.2-1.8.3 0 0-.1.1-.2.1-.2 0-.5.1-1.3.6l-.6.3c-.1.1-.4.2-.6.3-.2.1-.5.3-.6.4-.7.4-1.5 1-1.5 1.1 0 0 0 .1-.1.1-.2 0-1.3 1.1-1.9 1.9-.1.2-.3.4-.4.5-.3.4-1.1 2-1.3 2.5-.1.4-.1.5 0 .7.3.4 1.2.1 1.5-.6.2-.5.9-1.6 1.4-2.3.5-.7.8-1 1.5-1.5.2-.2.3-.3.3-.4 0 0 0-.1.1-.1s.2-.1.3-.2c.1-.1.3-.3.6-.4.2-.1.5-.3.6-.4.1-.1.2-.2.3-.2.1 0 .2-.1.4-.1 1.3-.7 1.9-.9 3.1-1 .7 0 .9 0 1.3.2.3.1.6.3.6.4.1.1.2.3.3.4.4.4.8 2.2.7 3.6-.1 1.2-.7 3.2-1.4 4.7-.1.1-.2.5-.4.8-.1.3-.3.7-.4.9-.1.2-.2.4-.3.5-.1.3-1.6 2.6-1.9 3-.1.1-.3.4-.5.6-.2.2-.4.5-.4.6-.1.1-.4.5-1 1.3-.1.2-.3.4-.5.6l-.2.4s-.1.2-.2.3c-.1.1-.3.4-.3.5-.1.2-.2.3-.2.4 0 0-.1.3-.2.5-.1.4-.1.5 0 .7.1.1.1.2.2.2 0 0 .3 0 .7.1.3.1.8.1 1 .2.6.1 1.4.3 1.5.4.1 0 .2.1.2.1.1 0 .3.1.5.3.4.4.3.4-.5.6-1.9.3-3.4-.2-4.3-1.4-.3-.4-.4-.6-.4-1l-.1-.5 1-1.7c2-3.5 3.3-6.3 3.9-8.2.6-2 .3-3-.9-3.1-.8-.1-2 .3-2.6 1-.6.5-2.1 1.6-2.9 2-1.3.7-3.1 1.3-4.8 1.6-.5.1-2 .3-3.4.4-3.2.3-4.8.7-5.8 1.3-1.1.7-2.5 2.1-3.5 3.5-.3.4-.5.7-.5.7-.1.1-1.8 2.9-2.1 3.5-.1.1-.3.5-.5.9-.5.8-.6 1.1-.8 1.7-.1.3-.3.6-.3.7-.3.7-1 2.3-1 2.4 0 .1 0 .2-.1.3-.4.8-.5 2.1-.4 3.2.1 1 .2 1.6.3 1.8 0 .1.1.2.1.3 0 .1.1.3.2.4.1.1.1.3.2.3 0 .1.2.4.4.9 1 1.8 2.4 3.2 4.8 4.6 1.9 1.1 2.6 1.5 3.6 1.7 1.4.4 2.6.1 3.4-.9.7-.9 1.1-2 1.3-3.7.2-1.1.2-3.4 0-4.8-.1-.7-.1-1.2 0-1.2.2 0 .9.3 1.5.6 1 .6 1.9 1.5 2.6 2.9.7 1.2.8 1.4 1.2 3 .3 1.1.4 1.4.5 2.8.1 1.1.1 1.3-.1 2-.3 1.2-.7 2.4-.9 2.5-.1 0-.1.1-.1.3-.1.2-1.4 1.9-1.6 1.9-.1 0-.2.1-.3.2-.1.1-.5.4-.8.6-.4.2-.7.4-.8.5-.5.3-1.9.8-2.4.9-.1 0-.3.1-.4.1-.6-.3-3.4 0-3.5-.1z" fill="#3c4ead"/><path class="main-textlogo" d="M21.3 74.4h-2.8c-.1 0-.5-.1-1-.2s-1.1-.2-1.3-.2c-.4-.1-.4-.1-.6-.1-.1 0-.2-.1-.3-.1-.1-.1-.2-.1-.2-.1s-.2 0-.4-.1-.5-.2-.8-.3c-.2-.1-.4-.2-.4-.3 0 0 0-.1-.1 0h-.1c0-.1 0-.1-.1 0-.2.1-.5-.1-.3-.2.1-.1.1-.1 0 0-.2.1-.4 0-.2-.2.1-.1.1-.1 0-.1-.2.1-1-.4-1.4-.8-.3-.3-.4-.4-.2-.6.1-.1.1-.1 0-.1s-.2 0-.1.1 0 .1 0 .2c-.1.1-.1.1-.2 0s-.1-.2-.1-.2V71c-.1.1-.1-.1.1-.2.2-.2.1-.2-.1 0-.1.1-.2.1-.4 0s-.2-.2-.2-.3c0-.1 0-.2-.1-.2s-.1 0 0 0v.1c-.1 0-.1 0-.1-.1 0 0-.2-.3-.5-.6-.4-.4-.4-.5-.4-.6 0-.1.1-.1 0-.1-.1.1-.3 0-.3-.2 0-.1-.1-.2-.2-.3-.1-.1-.2-.2-.2-.3 0-.1-.1-.1-.1-.1-.1 0-.1-.1-.1-.1 0-.1 0-.1-.1-.1s-.1 0 0-.1v-.1c-.1.1-.2-.1-.2-.4 0-.1 0-.2-.1-.2l-.2-.2c-.1-.1-.1-.2 0-.2 0 0 .1 0 0-.1 0-.1-.1-.1-.1-.1-.1.1-.1.1-.1 0 0-.2 0-.3-.1-.4v-.4c-.1 0-.1 0-.2-.2 0-.1-.1-.4-.2-.6-.4-.8-.8-2.4-.8-2.8 0-.2-.1-.5-.1-.6-.2-.8-.6-6.5-.4-6.7.1-.1.1-.2 0-.4s-.1-.3 0-.4c.1-.1.1-.5.1-.9 0-.6 0-.9.2-1.1.1-.1.1-.2 0-.2-.1.1-.1 0-.1-.1 0-.2 0-.2.1-.1s.1.1 0 0c-.1-.2-.1-.2 0-.9 0-.3.1-.5.2-.5 0 0 .1 0 0-.1-.1-.2 0-1.1.2-2.3.1-.3.2-.9.3-1.2.1-.3.2-.5.2-.5.1 0 .1 0 0-.1s0-.2.2-1.2c.1-.3.2-.8.3-1.1.2-.8.3-1 .4-.9 0 0 .1 0 .1-.1s0-.1.1 0 .1.1.1 0-.1-.1-.1-.1c-.1 0-.1 0-.1-.1s0-.1.1-.1c0 0 .1 0 0-.1s.1-.7.2-.6v-.3c0-.1.1-.3.1-.4 0-.1.1-.1.1-.1.1 0 .1 0 0 0v-.3c0-.1.1-.2.1-.3v-.2h.1c.1.1.1.1.1 0s0-.3.1-.5.1-.4.1-.5c0-.1 0-.2.1-.2 0 0 .2-.3.3-.6.2-.3.3-.6.4-.6.1 0 .1 0 .1-.2s0-.2.1-.2h.1c-.1-.1.2-.8.3-.8 0 0 .1 0 0-.1s0-.1.1-.1.1 0 .1-.1c-.1-.1.1-.5.2-.4 0 0 .1 0 .1-.1s.1-.4.3-.7c.2-.3.3-.5.3-.6l.2-.4c.1-.2.2-.3.2-.3 0-.1.7-1.1.8-1.1 0 0 .1 0 0-.1 0-.1.1-.3.2-.5s.2-.4.3-.3c0 .1.1 0 .1-.2.1-.2.2-.4.3-.5.1-.1.2-.2.2-.3 0 0 .1-.1.1-.2.1-.1.1-.1.1 0v.2s.1-.1 0-.2c0-.3.2-.6.3-.5 0 0 .1 0 0 0 0-.1 0-.1.1-.2s.1-.1.1-.2c0 0 .1-.3.3-.5.3-.4.4-.5.4-.3 0 0 0 .1-.1 0 0 0-.1 0-.1.1s0 .2-.1.2-.1 0-.2.1h.1c.1 0 .2-.1.3-.2s.1-.1.2-.1v-.1c-.1-.1-.1-.2-.1-.3.1-.1.7-1 1-1.3.1-.1.1-.2.1-.3 0 0 .1-.2.3-.4.2-.2.3-.4.3-.4 0-.1 0-.1.1-.1s.1.1.1.1v.1c.1 0 .1-.1.1-.2s0-.1.1-.1.1 0 .1-.1c-.1-.1.2-.4.4-.4.1 0 .2 0 .2.1.1.1.3.1.3 0 0 0-.1-.1-.1 0-.1 0-.1 0-.1-.1s0-.2-.1-.2-.1 0 0 .1c0 .1 0 .1-.1.1s-.1 0-.1-.1 1-1.2 1.1-1.2c0 0 .1 0 0-.1s.7-1 .8-.9c0 0 .1 0 .2-.1s.1-.1 0 0-.2.1-.2 0 .1-.1.2-.2c.1 0 .1-.1.1-.1-.1-.2.5-.7.7-.7.1 0 .1 0 0 0 0-.1.1-.3.3-.5l.4-.4.4-.4.4-.4s.1 0 .2-.1c.2-.1.2-.2.1 0 0 .1 0 .1 0 0 .1-.1.1-.1.1.1h.1c.1 0 0-.1 0-.2-.2-.2-.2-.2.2-.6.2-.2.4-.3.5-.3h.1c-.1-.1.4-.7.7-.8l.2-.2c0-.1 0-.1.2-.1h.1c-.1-.1-.1-.1.1-.2.1-.1.3-.2.3-.3.1-.2 2.8-2.7 2.9-2.7 0 0 .1.2.1.4s.1.4.1.4c.1 0 .1-.2.1-.4 0-.3 0-.5.2-.7.1-.2.3-.3.3-.3s.3-.2.5-.4c.3-.2.4-.3.4-.3-.1.1 0 0 .3-.4 0-.1.1-.1.2-.1h.1c-.1-.2 2.2-1.9 3.9-3 1.3-.8 3.1-1.9 3.3-1.9.1 0 .1.1.2.2 0 .1.1.1.1 0s.1-.2.2-.2.1 0 0-.1c-.1 0 0-.1.1-.2.2-.1.6-.1.4 0-.1 0-.1.1 0 .1s.1-.1 0-.3c-.1-.1.1-.2.4-.2.2 0 .3 0 .2-.1-.1 0-.1-.1 0-.1s.4-.2.8-.3c.3-.1.6-.2.7-.2 0 0 .1 0 .1-.1s.1-.1.2-.1h.1c0-.1.7-.4 1.1-.5.1 0 .2-.1.3-.1.1-.1.5-.2.9-.3.4-.1.8-.2.8-.3.2 0 2.2-.4 3.7-.6 1.4-.2 1.7-.2 3.1-.1 1.8.1 1.9.2 2.5.3.3.1.6.1.7.1.2 0 .2 0 .1.1s-.1.1.1 0 .6 0 1.1.2c.1 0 .2.1.4.1.1 0 .4.1.6.2.2.1.6.3.8.3 1.4.5 5 2.5 5 2.8 0 .1 0 .1-.1 0 0 0-.1 0-.1.1s0 .1.1.1.1 0 .1.1 0 .1.1.1V9c-.1-.2.1-.1.5.2.2.2.4.3.5.4.1.1.2.2.1.2 0 0-.2 0-.3-.1-.2-.1-.2-.2-.3-.1 0 .1 0 .1 0 0h.2s0 .1-.1.1-.1 0 0 .1c.1 0 .2.1.4 0 .3-.1.4 0 .3.2-.1.1-.1.1 0 0s.2-.1.2-.1c.2.3.3.4.2.4 0 0-.2 0-.2.1-.1.1-.1.1.1.1.1 0 .3-.1.3-.1l.4.2c.3.3.4.4.3.5.1 0 .2.1.4.3.1.2.3.3.3.2h.1c0 .1 0 .1.1 0s1.3 1.2 2.2 2.3l.5.6-.4.5c-.2.2-.2.2 0 .4s.2.2.3 0v-.3c-.1-.1-.1-.1 0-.2s.2 0 .2.2c0 .1.1.2.1.2.1 0 .1 0 .1.1 0 0 .1.3.3.5.2.2.3.4.3.5v.1c.1-.1.4.5.3.6 0 0 0 .1 0 0 .2-.1.2.2 0 .3-.1.1-.1.1 0 .1.1-.1.1 0 .1.1v.3c.1 0 .1 0 0-.1 0-.1 0-.1.1-.1.2.1.2 0 0-.2-.1-.1-.1-.2-.1-.2.1 0 .6.8.5.9 0 .1 0 .1.1.1 0 0 .1 0 .1.1s0 .1-.1.1-.1 0 0 0c0 .1 0 .2-.1.3-.1.1-.1.2 0 .1s.2-.1.3.1c.1.1.1.2.2.1 0-.1.1-.1.1.1 0 .1.1.2.2.2 0 0 0-.1-.1-.2-.2-.2-.2-.4 0-.3.1 0 .1 0 0-.1s-.1-.3-.1-.6c0-.2 0-.5-.1-.5-.1-.1-.1-.7 0-.8.1 0 .1-.1 0-.1-.1-.1-.1-.3-.2-1.2-.1-1.3 0-3.2.1-3.8 0-.2.1-.5.1-.6 0-.1 0-.3.1-.3 0 0 .1-.2 0-.3 0-.1 0-.3.1-.4 0-.1.1-.3.1-.4 0-.3.2-1 .3-1.3.1-.1.2-.4.2-.6.1-.2.1-.3.2-.3s.1 0 0 0v-.4c.1-.3.7-1.6.8-1.6 0 0 .2-.3.3-.5.2-.3.3-.5.4-.4.1 0 .1 0 0 0-.1-.1-.1-.1 0-.3.3-.4 1-1.2 1.1-1.2.1 0 .1-.1.2-.2l.1-.2.6-.2c.3.1.6.2.8.2.2 0 .4.1.5.2.1.1.2.1.2 0s0-.1.1 0c.1 0 .1.1.1.1s.1.1.2 0c.1 0 .3 0 .4.1.1.1.3.1.5.2.3.1.4.1.2.2-.2.2-.2.2 0 .1.3-.1.3-.1.3 0s0 .1.1 0 .2-.1.4 0c.1.1.3.1.4.1.1 0 .1 0 .1.1s0 .1 0 0c.1-.1.4 0 .3.1-.1.1.1.4.3.4.1 0 0-.1-.1-.2-.2-.2-.1-.3.1-.1.1.1.2.1.1 0 0-.1.2 0 .5.1s.5.2.5.3c0 0 0 .1.1 0s.5.2.4.3c0 0 0 .1.1.1s.1 0 .1-.1h.2c.1.1.2.1.2.2s0 .1.1 0c.1 0 .3 0 .5.1.3.4.4.5.3.6-.1.1-.1.1.1 0 .1-.1.2-.1.4 0 .1.1.2.2.3.2 0 .1.1.1.1 0 0 0 .1 0 .3.1.2.1.3.1.3.1s.1 0 .3.2l.4.2c.1 0 .1 0 0 .1 0 .1 0 .1 0 0 .1 0 .3.1.6.3.3.2.7.4.8.5s.3.2.2.2c0 .1 0 .1 0 0 .2 0 .9.4.8.5 0 0-.1 0-.2-.1-.2-.1-.2-.1-.3-.1-.2.1-.2.1-.1.1s.2 0 .3.1c.1.1.2.1.3.1.1-.1.1 0 .7.4.2.2.4.3.5.3.1 0 .2.1.3.2l.2.2-.2-.2-.2-.1c0 .1.2.2.4.2s1.4 1.1 1.4 1.2c0 0 0 .1.1 0 .2-.1.5.2.4.3 0 .1 0 .1 0 0h.1s.1.1.2.1.3.2.4.4c.1.2.2.3.3.3.1 0 .1 0 .1.1s.2.2.3.4c.2.2.3.3.3.4 0 0 0 .1.1 0 .1 0 .1 0 .1.1-.1.2-.4.2-.4-.1 0-.2-.1-.3-.2-.2v.1c.1 0 .1 0 0 .2-.1.1-.1.2 0 .1h.1c.1.1.2.1.4 0 .1-.1.6.5.7.6l.2.2c.2.2 1.1 1.2 1 1.2v.1c.3.2.7.8.7 1v.1c.1-.1.2 0 .2.2 0 .1 0 .1 0 0 .1 0 .1 0 .2.1 0 .1.2.3.3.4.1.1.2.3.2.4v.1c.1 0 .1.1.1.1v.1c.1-.1.5.7.5.8 0 .1 0 .1 0 0 .1 0 .1 0 .1.2 0 .1.1.3.1.3.1.1.1.1 0-.1s-.1-.2 0 0c.1.1.1.2.1.3v.1h.1c0 .1.1.3.2.6.1.2.3.5.3.7 0 .1.1.2.1.2.1 0 0 .4-.2.6-.2.2-.2.2 0 .1.1 0 .2 0 .2.1s.1.2.2.2c.2.1.2.1 0-.2-.2-.2-.2-.3-.1-.5l.1-.2v.2c0 .3 0 .3.1.4.1.1.6 1.8.5 1.9 0 0 0 .2.1.4s.1.5.1.6c0 .3 0 .3-.1.1-.1-.1-.1 0-.1.5s0 .7-.1.6c-.1 0-.1.1 0 .4.1.7.3.8.2.2v-.5s.1-.1 0-.3v-.5c.1-.1.1.1.1.8 0 1.4 0 1.5-.1 1.7 0 .1-.1.4-.1.5 0 .2 0 .3-.1.3 0 0-.1.1-.1.2s0 .3-.1.4c-.1.1-.1.3-.1.4 0 .3-.1.6-.4 1.4-.1.2-.2.4-.2.5 0 0-.1.2-.2.5-.1.2-.2.4-.2.5 0 .1 0 .1-.1 0-.1 0-.1 0 0 0 .1.1-.1.5-.2.4-.1-.1-.1-.2 0-.2 0 0 .1 0 .1-.1 0-.2 0-.2-.1 0-.1.1 0 .2 0 .3.1.1.1.2 0 .3-.1.1-.1.1-.2 0v.1c0 .1 0 .2-.1.3-.1.1-.2.2-.2.3 0 .1 0 .1-.1.1s-.1 0 0 .1c0 .1 0 .1-.1.1s-.1 0-.1.1 0 .1-.1.1-.1 0-.1.1c.1.1-.2.4-.3.3 0 0-.1 0 0 .1.1.2-.3.5-.6.5-.1 0-.2 0-.2.1v.1s-.1 0-.1-.1 0-.1-.1 0c-.1.2 0 .3.2.1.3-.3.3-.2.2 0l-.2.2c-.1 0-.2.1-.3.3-.1.2-.3.3-.3.2 0 0-.1 0-.1.1s0 .1.1 0c.3-.2-.3.4-.9.8-.4.6-.6.7-.8.7h-.1c.2.1.1.2 0 .2s-.1 0-.2.1c0 .1-1.1.2-1.1.1H91c-.3.1-.4 0-.3 0 .1-.1 0-.1-.3-.1h-.8c-.2 0-.6 0-.9-.1-.3 0-.8-.1-1-.1-.2-.1-.4-.1-.4-.1-.1 0-1-.1-1.5-.2-.1 0-.4-.1-.6-.1-.2 0-.5-.1-.5-.1s-.2-.1-.3-.1c-.3 0-2.1-.4-2.4-.5-.1-.1-.5-.1-.7-.2-.4-.1-1.5-.4-2.2-.6-.1-.1-.1-.1-.1-.2s0-.1-.1 0-.3 0-1.1-.3c-.2-.1-.6-.2-.8-.3-.2-.1-.8-.3-1.4-.6-.9-.4-1.1-.5-.9-.6.1-.1.1-.1-.1 0h-.3c0-.1 0-.1-.1 0 0 0-.3 0-.5-.2-.6-.3-.8-.4-.7-.5-.1.1-.5-.1-.7-.3 0-.1-.3-.2-.5-.3-.2-.1-.5-.2-.6-.3-.1-.1-.4-.2-.5-.3-.2-.1-.5-.3-.8-.5-.4-.3-.5-.4-.4-.5.1-.1.1-.1-.1 0-.1 0-.3 0-.6-.3-.2-.2-.4-.3-.5-.3 0 0-.1 0 0-.1 0 0 0-.1-.1-.1h-.4c-.7-.1-1.6 1.2-1.7 2.5 0 .1 0 .4-.1.5v2.7c-.1-.1-.1-.1-.1 0s.1.2.1.3c.1.1.1.3.1.5 0 .3 0 .5.1.7.2.3.2.9 0 .9-.1 0-.1-.1-.2-.4v-.5.5c0 .4 0 .5.2.6.1.1.1.1 0 .1s-.2 0-.1.1c0 .1.1.1.1 0 .1-.2.2 0 .3.5 0 .3.1.6.1.7 0 .1 0 .2-.1.2s-.1 0 0 .1.2.4.2 1.1c.1.5.1 1 .1 1s.1.3.1.4c0 .2.1.6.2.9.1.3.1.6.1.7v.1c.1 0 .1.1.2.4 0 .2.1.5.2.7.1.4.3 1.2.3 1.5 0 .1 0 .2.1.1s1.7-.2 1.8-.1c0 0 .2.1.3 0 .3-.1 1.4.1 1.4.1s.1.1.2.1.3 0 .3.1.2.1.3.1c.1 0 .2.1.2.1s0 .1.1 0h.1c0 .1-.3.2-.8.4-.9.3-3.1.4-3.7.2-.2-.1-.5-.1-.6-.1-.2 0-.4-.2-.4-.6 0-.1 0-.2-.1-.2 0 0-.2-.3-.3-.7-.2-.6-.3-.9-.2-1 .1-.3.1-.5-.1-.2l-.1.3v-.3c0-.2-.1-.4-.1-.5-.1-.1-.1-.2-.1-.3v-.1s-.1-.1-.1-.2-.1-.3-.1-.5c0-.1-.1-.4-.1-.5 0-.2 0-.3-.1-.3s-.1 0-.1-.2v-.2s-.1-.1-.1-.2-.1-.6-.2-.9c-.1-.3-.2-.8-.1-.9v-.1c-.1.1-.1.1-.1-.2-.1-.4 0-.6.1-.4.1.1.1.1 0 0 0-.1-.1-.1-.1-.1-.1 0-.4-1-.4-1.7 0-.4-.1-.7-.1-.7s-.1-.7-.1-1.6c-.1-1.1-.1-1.6 0-1.6s.1-.2 0-.7c-.1-.5-.1-.7 0-.6 0 .1.1.1.2.1 0 0 0-.1-.1-.3-.2-.2-.5-1-.5-1.3v-.1l-.4-.2c-.6-.5-1.6-.4-2.5.2-.9.6-1.5.9-1.7.9-.1 0-.1 0 0 0 .2.1 0 .2-.3.2h-.1c.1.1-.8.6-1.9 1.1-.3.1-.7.3-.8.4-.2-.1-.4 0-.5-.1h-.1s-.1.1-.3.2c-.2.1-.7.2-1 .4-1.8.7-3.9 1.2-6 1.5-2.2.3-3.8.3-3.8.1 0 0 0-.1.1 0 .1 0 .1 0 .1-.1v-.3c0-.2 0-.2.1 0 .1.1.1.1.1 0 0-.3 0-.5.1-.4.1 0 .1 0 0 0 0-.1 0-.2.1-.4.1-.1.1-.3.1-.3 0-.2 0-.2.1 0 0 .1.1.2.1.3 0 .1 0 .2.1.2.1.1-.1-.5-.2-.7-.1-.1-.1-.2 0-.5.1-.2.1-.4.1-.4v-.2c.1-.3.2-1.1.2-1.3-.2-1.9-.2-2.4-.5-2.9-.1-.2-.2-.4-.1-.5v-.1c-.1.1-.5-.5-.4-.7 0 0 0-.1-.1 0-.1 0-.6-.5-.6-.6 0 0 0-.1-.1-.1 0 0-.1 0 0 0 .1.2-.1.1-.2 0s-.1-.1 0-.1h.1c0-.1-.1-.1-.1-.1-.1.1-.4-.1-.4-.3 0-.1 0-.1-.1 0s-.3.2-.2 0c0 0 0-.1-.2-.1-.1 0-.2 0-.2-.1s0-.1-.1-.1h-.1c0-.1-.3-.1-.8 0h-1.2l-.4.2c-.3 0-.6.2-.7.2-.1.1-.2.1-.2.1s-.1 0-.3.1c-.1.1-.3.1-.4.1-.1 0-.1 0 0 0 0 .1 0 .1-.1.1-.4 0-.8.2-.7.3l-.3.3c-.3.2-.5.2-.8.2-.3 0-.5 0-.6.1-.2.1-.2.1 0 .1.3-.1.8-.2.8-.1 0 0-.1.1-.2.1s-.2 0-.1.1c0 .1-.8.7-.9.6 0 0-.1 0-.2.1s-.3.3-.5.4c-.4.3-.6.5-.9.8-.1.1-.2.2-.3.2h-.1c0 .1-1.1 1.4-1.2 1.4 0 0-.1 0-.1.1s0 .1.1.1.1 0 .1.1 0 .1-.1.1-.2.1-.2.3c0 .1-.2.3-.3.5l-.1.1c0-.1 0 0-.1.1s-.1.3-.1.3c0 .1-.3.9-.5 1.2-.1.2-.1.6.1.8.2.2.3.2.6.1.2 0 .4-.1.5-.2.1-.1.2-.1.2-.1s.1 0 .1-.1 0-.1-.1 0h-.1c0-.1.1-.1.1-.1.1 0 .1 0 0-.1v-.1c.1 0 .1 0 .1-.1s.6-1.3.8-1.4c.1 0 .2-.2.2-.4.2-.4.7-1.1.8-1.1.1 0 .1-.1.2-.2 0-.1.1-.2.2-.2 0 0 .2-.1.4-.3.3-.3.4-.3.5-.2.1.1.1.1.2 0v-.2c-.1-.1.4-.5.6-.5.1 0 .1 0 .1-.1s.1-.1.2-.1.2 0 .2-.1.4-.4.8-.6c.2-.1.3-.1.5 0 .3.1.4.1.3 0-.1-.4-.2-.4-.2-.4h-.1c0-.1 0-.1 0 0h.1c0-.1.1-.1.3-.1.1 0 .2-.1.2-.1 0-.1.4-.3.7-.3.1 0 .3-.1.4-.1.1 0 .3-.1.4-.1.2 0 .3-.1.3-.1.1-.1 1.1-.1 1.1 0h.3c0 .1.2.2.4.2.1 0 .4.1.3.2 0 0 0 .1.1.1.2 0 .3.3.2.4-.1.1-.1.1 0 0s.2-.1.3.2c.2.4.4.9.4 1 0 0 0 .1.1.1s.2 1.7.2 2.4c-.1.8-.3 1.6-.4 1.5-.1-.1-.1 0 0 .1 0 .1 0 .4-.1.6-.1.2-.2.5-.2.5 0 .2-.3.8-.4.7.1.1-.3 1-.4 1.1v.2s-.1 0-.1-.1-.1-.1-.1 0 0 .1.1.2l-.2.8c-.2.4-.4.7-.4.7-.1 0-.1 0 0 .1 0 .1 0 .3-.2.5-.1.2-.3.5-.3.6-.1.1-.1.2-.2.2l-.1.1c0 .2-.1.3-.3.2-.1-.1-.3-.1-.3 0v.1h.1c.1-.1.1-.1.2 0s.1.1 0 .3c-.1.1-.2.1-.2.2 0 0-.1.2-.2.3-.1.2-.2.3-.3.2-.1-.1-.1-.1 0 0 0 .1 0 .3-.1.4-.8 1.2-1 1.4-1.3 1.4-.2 0-.2 0-.2.1s.1.1.2 0 .1-.1.1 0c0 .2-.2.5-.3.4-.1 0-.1 0 0 0 .1.1-.1.3-.8 1.1-.2.2-.3.4-.3.5 0 0-.1.2-.2.2-.1.1-.3.5-.5.8-.3.6-.5.8-.5.6 0-.1 0-.1-.1 0 0 0 0 .1.1.2s.1.2 0 .5-.1.4 0 .5c.1.1.3.2.4.2.1 0 .3 0 .4.1.1 0 .2.1.3.1.3 0 1.6.3 1.9.4.2.1.4.2.3.2 0 0 0 .1 0 0h.3c.2.1.2.1.1.2s-.1.1.1.1c.1 0 .2.1.3.2.1.2.1.2-.1.2-.1 0-.7.1-1.3.1-1 .1-1 .1-1.1-.1 0-.1 0-.1-.1-.1 0 .1-.1.1-.4 0-.4-.1-1.3-.6-1.3-.7 0-.1 0-.1-.1 0s-.8-.8-.9-1.1c0-.1-.1-.2-.1-.2s-.1-.1-.1-.3c0-.1 0-.3.1-.3s.1-.1.1-.1c0-.1.2-.6.3-.6 0 0 .1 0 .1.1s.1 0 .1-.2c.1-.2.1-.2 0-.1l-.1.1c0-.1.7-1.3.9-1.6.1-.1.1-.2.1-.2 0-.1.7-1.2.8-1.1 0 0 .1 0 .1-.1s0-.1 0 0h-.1c0-.1.3-.7.4-.8 0 0 .1-.2.2-.5.1-.4.2-.4.3-.3.1.1.1.1 0 0-.1-.2.8-2.2.9-2.1 0 0 .1 0 0-.1 0-.1 0-.3.1-.6.3-.7.5-1.1.4-1.3 0-.1 0-.1.1-.1.1.1.1 0 .1-.1 0-.2.1-1 .3-2 0-.1 0-.3-.1-.4-.4-.7-.5-.8-.9-1-.2-.1-.5-.2-.6-.2-.1 0-.3 0-.5.1s-.5.2-.7.2c-.2 0-.3.1-.3.1s0 .1-.1.1-.6.3-.7.5l-.3.3c-.2.1-.4.3-.4.3-.3.3-1 .8-1.1.7 0 0-.1 0-.1.1s0 .1-.1.1h-.1s-.3.3-.7.5c-.6.3-.8.4-1 .4h-.1c.2.1.2.1-.1.2-.1.1-.5.2-.8.3-.3.1-.5.1-.5.2.1.1-1 .3-1.2.3h-.1c.1.1.1.1-.2.1h-.6c-.1 0-.2 0-.2.1.1.1-.6.2-3.7.5-2.3.2-2.6.3-3.2.4-.8.2-1.8.5-1.9.6-.1.1-.2.1-.3.1h-.1c.1.1.1.1-.1.2-.1 0-.3.1-.3.1s-.1 0 0 0c0 0-.1.2-.2.3-.5.4-.8.6-.9.8-.1.1-.1.1-.2 0s-.1-.1 0 0c.1.2-1.2 1.6-1.5 1.6-.1 0-.1 0 0 0s.2.1.2.1l-.4.6c-.2.3-.4.6-.5.7 0 .1-.1.2-.1.2-.1 0-.1 0 0-.1 0-.1 0-.1 0 0-.1 0-.1.1 0 .1 0 .1-.2.5-.3.6 0 0-.2.3-.3.5-.2.3-.3.5-.3.4 0 0-.1 0-.1.1s0 .2-.1.2l-.1.1c0 .1 0 .1-.1.1s-.1 0 0 .1v.1c-.1 0-.1.1-.2.3 0 .2-.1.3-.2.3s-.1.1-.1.1c0 .1-.1.3-.3.6l-.4.8c-.1.3-.3.5-.2.2v-.1s-.1.2-.1.3c0 .1 0 .3-.1.4-.1.2-.3.5-.2.6 0 0 0 .1-.1 0 0 0-.1.1-.2.3-.1.5-.6 1.5-.7 1.4.1.1-.1.5-.2.4-.1 0-.1 0 0 .1 0 .1 0 .1-.1.1s-.1 0-.1.1c.1.1-.1.6-.2.7 0 0-.1.1-.1.2s-.1.3-.2.5-.2.5-.2.7c0 .2-.1.4-.1.4-.1.1 0 2.2.1 2.5 0 .1.1.4 0 .5v.2c.1-.1.4.7.3.8v.1c.1 0 .1.1.1.3 0 .2.1.3.1.2 0 0 .1 0 .1.1s.1.2.2.4.1.3.1.5c-.1.2-.1.3.1.4.3.2.3.1.1-.1-.1-.1-.2-.2-.1-.3 0-.1.2-.1.2 0l.2.4.2.4s0 .1.1.1c.1.1.1.1 0 .3-.1.2-.1.2 0 .2s.1 0 .1-.1v-.1s.2.1.2.2c.1.1.3.3.4.5.1.1.2.2.1.2-.1-.1-.1-.1 0 .1.1.1.2.1.3.1.1 0 .1 0 .1.1v.1c.1 0 .1 0 .1.1s-.1.1-.1.1c-.1 0-.1.1-.1.2.1.3.1.3.1.1 0-.3.2-.3.4-.1.1.1.5.4.7.6.5.4.5.4.3.6-.2.2-.2.2.1 0 .2-.2.2-.2.2 0v.1c.1-.1.2 0 .5.1.2.1.3.2.3.3 0 0-.1 0-.2-.1-.3-.2-.4-.2-.4-.1s.1.1.1.1c.2-.1.1.1 0 .2s-.1.1 0 .1.2 0 .3.1c.1 0 .2 0 0 0-.1-.1-.1-.1.1-.1.1 0 .3.1.5.2.1.1.3.2.4.2.1 0 .1.1.1.2s0 .1 0 0c.1 0 .3 0 .4.2.8.6 2.4 1.1 3.2 1.1.3 0 .3 0 .2.1-.2.1-.2.1 0 .1h.4c.1 0 .1 0 0 0-.1-.1.8-.4 1.5-.5 0 0 .1 0 0-.1 0 0 .2-.3.4-.5.4-.4.4-.4.4-.2s0 .2.1.2.1-.2 0-.3c0-.1 0-.4.2-.8.4-.8.7-2.2.8-2.9 0-.2 0-.7.1-1.1.1-.8-.1-4-.2-4.5v-.3c.1 0 .1 0 .1.1 0 0 .1.1.2.1s.4.1.6.2c.2.1.3.2.2.2-.1 0-.1 0-.1.1v.2s.1 0 .2-.1.2-.1.4 0l.2.2h.1c.1-.1.2 0 .2.1s.2.3.5.5c.3.3.4.3.3.4 0 .1-.1.1-.2.1h-.1c0 .1.2.1.4-.1.1 0 .2.1.4.3.2.2.3.4.2.3h-.1c0 .1.1.1.1.1.2 0 .3.2.1.4-.1.2-.2.2-.3.1 0-.1-.1-.1-.1 0s0 .1.2.1c.1 0 .2 0 .2-.1s0-.1.1-.1.1 0 .1.1v.1c.1-.1.3.5.3.6 0 0 0 .1 0 0 .1-.1.7 1.2.7 1.6 0 .2 0 .3.1.2.1-.1.4 1 .5 1.6.1.6.1.7.2.8.1.1.2 2.2.1 2.4 0 .1-.1.3-.1.5 0 .1-.1.4-.1.5 0 .1-.1.3-.1.4 0 .1-.1.3-.1.4-.1.1-.1.3-.1.4 0 .1-.1.2-.2.4s-.2.2-.1.2 0 .1-.1.3c-.1.2-.3.4-.3.3h-.1c0 .2 0 .4-.6 1-.4.4-.7.7-.8.7-.1 0-.1 0-.1.1s0 .1-.1.1-.1 0-.1.1 0 .1-.1.2-.3.2-.4.3c-.1.1-.3.2-.4.1h-.1c.1 0 .1.1.1.1 0 .1-.1.1-.2 0s-.1-.1-.1 0 0 .1-.1.1h-.1c.1.1-.4.3-.5.3h-.1v.1c-.2 0-.2 0-.3.1-.1.1-1.3.5-1.7.6-.2 0-.4.1-.6.1-.1 0-.4.1-.6.1-.2 0-.4.1-.5.1.3.1.2.1.2.1zm.4-.3s-.3-.1-.5-.1c-.3-.1-.4-.1-.4 0 0 0 .2.1.3.1.1 0-.2 0-.7.1-.5 0-.9.1-1 .1-.1 0 .4.1 1.1 0 .7-.1 1.2-.1 1.2-.2zm-2.6 0c-.1-.1-.2-.1-.3-.1-.1 0-.1 0 0 .1h.3c.1 0 .1 0 0 0zm-2-.4c-.1 0-.3 0-.3.1-.1 0 0 .1.3-.1.2.1.2.1 0 0zm6.8-.2c.1-.1.1-.1-.1-.1-.1 0-.3.1-.3.1 0 .1.3.1.4 0zm1.2-.3l-.2-.2c-.2-.1-.2-.1-.1 0s.1.1 0 .2h.1c.1.1.2.1.2 0zm-2.6 0c-.2-.1-.3-.1-.3 0s.1.1.3 0c.1.1.1.1 0 0zm-8.3-.2l-.2-.1.2.1c.1-.1.3 0 .4 0s.1 0 .1-.1 0-.1-.1-.1h-.1c-.2-.1-.4-.1-.6 0-.2.1-.2.1.1.2.4.2.5.2.2 0zm12.7-.7l-.1-.1c-.1 0-.1 0-.1.1s0 .1-.1 0c-.1 0-.1 0-.1.1s.1.1.2 0c.1 0 .2-.1.2-.1zm.1-.4c0-.1.1-.1 0 0 .1 0 .2 0 .2-.1s0-.1.1 0c.1 0 .1 0 0 0 0 0 0-.1.1-.2s.1-.1 0 0-.2.1-.3 0c0 .1 0 .1-.1.1-.2 0-.3.3-.1.3.1 0 .2-.1.1-.1zm1-.8c-.1-.1.1-.3.2-.3s0 .1 0 .2c-.1.1-.1.1 0 0s.1-.2.1-.2c-.1-.1-.1 0-.3.1-.1.1-.2.1-.2.1v.2c0 .2 0 .2.1.1s.2-.2.1-.2zm-16.2.6c-.2-.1-.2-.1 0 0 .1 0 .2-.1.1-.1-.2-.2-.4 0-.1.1 0 .2.1.2.1.2s0-.1-.1-.2zm16.6-1.3c0-.1 0-.1 0 0-.1-.1-.2 0-.2.1s0 .1.1.1c0 0 .1-.1.1-.2zm.5-.3c0-.1-.1-.1-.2-.1-.2 0-.2 0 0 .1.1.1.1.1 0 .3-.1.1-.1.2 0 0 .1-.1.2-.2.2-.3zm.4-.7c0-.2 0-.2-.1-.1 0 .1-.1.2 0 .3.1.1.1.1.1-.2zm.4-.8c0-.1-.1-.1-.1-.1s-.1 0 0 .1c0 0 0 .2-.1.3-.1.1-.1.2-.1.1s0-.1-.1-.1v.2c.1.1.4-.3.4-.5zm-20.5.7c0-.1 0-.2-.1-.2 0 0-.1 0 0 .1s0 .1-.1.1c-.1-.1-.1 0 0 .1.2.1.2.1.2-.1zm-1.5-3.1l-.2-.2c-.1-.1-.2-.1-.2 0v.1s.1 0 .2.1.2.1.2 0zM7.2 65c-.1-.1-.1 0-.1.1 0 .3.1.4.2.2 0-.1-.1-.2-.1-.3zM29 63.2zm-4.6.4c0-.2 0-.2 0 0-.2.2-.2.2-.1.2s.1-.1.1-.2zM14 63.5v-.2c.1-.1.1-.1-.1 0s-.2.1-.3 0c-.1-.1-.2-.1-.2-.1l.2.2c.3.2.5.2.4.1zm15.8-.8v-.2c0-.2 0-.2-.1 0 0 .1-.1.1-.2.1h-.1c0 .1.1.1.1.1h.3zm-23.1.7V63l-.1-.3v.3c0 .2-.1.2-.1.1s0-.1-.1-.1c0 .1.2.6.2.6.1 0 .1-.1.1-.2zm6.3-.9c-.2-.1-.3-.1-.2 0 0 .1.1.1.2.1s.1 0 0-.1zm-.3-.5c.1 0 .1 0 0 0 0-.1-.1-.1-.1-.1s-.1 0-.1-.1v.1c0 .2 0 .2.1.1h.1zm-2-2.7c-.1-.3-.2-.4-.2-.1 0 .2.1.3.1.3.2-.1.2-.1.1-.2zM25 57.9v.2c0 .2 0 .2.1.2-.1-.2-.1-.3-.1-.4zm-14.7.2c0-.1 0-.2-.1-.1 0 0-.1.1-.1.2.1.3.2.2.2-.1zm-.1-.8c-.1-.2-.1-.2 0 0v.3c0 .1 0 .1.1 0 0-.1-.1-.2-.1-.3zm-.2-3.1l-.1-.2.1.2v.8-.3c.1-.1.1-.3 0-.5zm.2-.8c0-.1 0-.1-.1-.1 0 0-.1.1-.1.3 0 .2 0 .3.1.1.1-.1.1-.3.1-.3zm1.5-3c0-.1-.1-.2-.2-.2s-.2 0 0 .2l.2.2v-.2zm59.5-2.9h-.1.1zm-31 1.3l-.1-.1h-.3c-.2 0-.2 0 0 .1.4.1.4.1.4 0zm32.3-1.6c.1 0 .1 0 0 0-.1-.2-.4-.2-.4 0 0 .1 0 .1.1.1.1-.2.2-.2.3-.1zm-.8-.1c.2-.1.2-.1 0 0-.2 0-.3 0-.3-.1s0-.1-.1 0c-.1 0-.1.1-.1.1.1.2.3.1.5 0zm-33.9.9c.1 0 .1 0 0 0 0 .1.2.1.4.1h.4l-.3-.1c-.1 0-.4-.1-.5 0l-.2-.1s0 .1-.1.1-.1.1-.1.1c0 .1.1.1.2 0s.2-.1.2-.1zm-.9-.1c-.2-.1-.3-.1-.1-.2.1-.1.1-.1 0-.1s-.2 0-.2.1c0 .2.2.3.3.2.3.1.2.1 0 0zm-.9-1.8c-.1-.1-.2-.1-.2 0 0 0 0 .1-.1 0s-.1.3 0 .4c.2.1.4-.3.3-.4zM6.7 47.2c0-.2-.1-.4-.1-.4v.3l.1.4v-.3zm60.6-3c0-.1 0-.3-.1-.4l-.1-.2v.2c-.1.3 0 .5.1.5s.1 0 .1-.1zm-30.5.9c-.1-.1-.2-.2-.2-.1s.2.3.3.3c-.1-.1-.1-.1-.1-.2zm.7-1.1c-.1-.1-.4 0-.3.1l.1.2c.1.1 0 .1 0 .1-.1 0-.1 0 0 .1 0 .1.1.1.2-.1 0-.2.1-.3 0-.4zM7 45.5c0-.1 0-.1 0 0-.1.1-.2.2-.2.3 0 .1 0 .1.1 0s.1-.2.1-.3zm.3-.1c.1.1.1 0 0-.2 0-.1-.1-.1-.2-.1s-.1 0-.1.1.1.3.1.4v.3-.3c.1-.2.1-.3.2-.2zm59.6-3.3c0-.5-.2-.5-.2-.1v.4c.2.2.2 0 .2-.3zm-1-.4c-.1-.2-.1-.2-.1-.1v.1c.1 0 .1.1.1.2v.1c.1 0 .1-.2 0-.3zm-27.6 1.4c0-.1 0-.2-.1-.2-.2 0-.2.2 0 .3l.1.1v-.2zm-30.6.6c0-.1-.1-.2-.1-.2v.3c0 .1.1.2.1.2v-.3zm58.9-3.1c0-.2 0-.4-.1-.4v.4c0 .2.1.4.1.4v-.4zm-27.2.6c-.1.2-.1.2-.2.2s0 0 0 .1c.1.1.1.1.2 0s.1-.2 0-.3zm.5-.1c0-.2 0-.2-.1-.1-.1 0-.2.1-.3 0-.2 0-.2 0 0 .1.1.1.2.1.2.1h.1v.1c.1 0 .1-.1.1-.2zM9.3 42.2c0-.2 0-.2-.1-.1-.1.2-.1.4 0 .4s.1-.2.1-.3zm57-3.2v-.2s-.1.1-.1.2c0 .3 0 .3.1 0zM91 37.1s-.2-.1-.3-.1c-.3 0-.3 0-.1.1.4.1.4.1.4 0zm2.7-.8c.2 0 .2 0 0 0v-.2c.1-.1 0-.1-.3 0-.1.1-.1.1 0 .1s.1.1-.1.1c-.1.1-.2.1 0 .1.1 0 .3-.1.4-.1zm-52.4 2.2c0-.1 0-.2.1-.2s.2.1.2.1c0 .1.1 0 .1-.1.1-.3 0-.5-.2-.2-.1.1-.2.2-.2.1-.1.1-.1.2 0 .3-.1.1-.1.2 0 .2v-.2zm-32.2.9c-.1 0-.1 0-.1.1v.2c-.1 0-.1.1-.1.2s.1.1.1-.1c.1-.2.1-.3.1-.4zm33.1-2.8c0-.2-.2.1-.2.3v.3l.1-.3c.1 0 .1-.2.1-.3zM9.7 38.4c-.1 0-.1-.1-.1-.2s.1-.1.1-.1h.1c0-.2-.3-.1-.3.1-.1.2 0 .5.2.4.1-.1.1-.1 0-.2zM96 34.3c-.1-.1-.1-.1 0-.2s.1-.1 0-.1-.2.1-.2.1c0 .2.1.3.2.3v-.1zm-53.1 1.3c0-.1 0-.2-.1-.3-.1-.1-.1 0 0 0v.3l-.1.2-.1-.2c-.1-.2-.1-.2-.1 0 0 .1 0 .2.1.2.1.2.3 0 .3-.2zm-32.6 1.5c-.1-.3-.1-.3-.2-.2v.2s.1.1.1.2c.2.3.2.1.1-.2zm30.4-2.5c0-.2 0-.3-.1-.2-.1.1 0 .5.1.5v-.3zm2.6-.4c0-.2.1-.2.2-.2s.1 0 .1-.2v-.2l-.1.2c-.2.1-.3.3-.2.4-.1.1-.1.2-.1.2-.1 0 0 0 0 0 .1 0 .1-.1.1-.2zm2.3-.1c-.1-.1-.1-.2 0-.2 0-.1 0-.1 0 0-.1.1 0 .4.1.4-.1 0-.1-.1-.1-.2zm19.2-1.8c0-.2 0-.2 0 0s-.1.4-.1.4-.1.2-.1.4v.4l.1-.4c.1-.4.1-.7.1-.8zm-10.3 1.2c.1-.1-.4 0-.5.1-.1.1 0 .1.2 0 .1 0 .3-.1.3-.1zm11.5-.8v.2c0 .2 0 .2.1.2-.1-.2-.1-.3-.1-.4zm-33.9 1.8c0-.1-.1-.1-.2 0-.4.1-.4.1-.1.1.1 0 .3 0 .3-.1zm-1.3-.3c0-.1 0-.1-.1-.1l-.1.1c0 .1.1.1.1.1.1 0 .1-.1.1-.1zm-19.3.5c0-.2-.1-.1-.2.1-.1.1-.1.2.1.1.1-.1.1-.2.1-.2zM44 32.6v-.4s-.1.1-.1.2c0 .2 0 .1-.1-.1-.1-.3-.1-.3-.1 0 0 .1 0 .3.1.3 0 .1.2.1.2 0zm-31.5.7c.1 0 .1-.1.1-.2s0-.2-.1-.2c0 0-.1.1-.1.2s-.1.2-.1.2h-.1s0 .1-.1.2c0 .1 0 .1.1 0 .2-.1.3-.2.3-.2zm18.8-1c.1-.1.1-.1 0-.1s-.2.2-.2.4c0 .1 0 .1.1 0 0-.1 0-.2.1-.3zm12.6-.7s.1 0 0-.2-.1-.2-.1 0c0 .1-.1.2 0 .3 0 .1 0 .1 0 0s.1-.2.1-.1zm-9.5.3c0-.1 0-.1 0 0-.1 0-.1 0-.1-.1 0 0 0-.1.1-.1s.1-.1.1-.2 0-.1-.1 0-.1.1-.1-.1c0 0 0-.1-.1 0s0 .3.1.5c0 .1 0 .1.1 0zm.8-1c0-.1 0-.1 0 0 .2-.1.2-.1.2-.2s-.1-.1-.3-.1c-.2 0-.2 0-.2.2 0 .1 0 .2.1.1 0-.1.1-.1.2 0zm-21.8.4c0-.1-.1-.1-.2 0s-.1.1 0 .2c0 .1.1.1.2 0v-.2zm22.1-1c-.1-.1 0-.2.2-.1.1 0 .1 0 0-.1-.2-.1-.4 0-.2.2 0 .1 0 .1.1.1l-.1-.1zm8.2-1.1l-.2-.2v.2c0 .1.1.2.1.2s.1 0 .1.2c0 .1 0 .2.1.1 0-.1 0-.3-.1-.5zm-29.5 1.3c.1-.2.1-.3.1-.4-.1-.1-.1-.1-.1.1 0 .1-.1.3-.2.4-.1.1-.2.2-.1.2s.2-.2.3-.3zm22.5-1.2s0-.1-.1-.1c0 0-.1 0 0 .1 0 .1 0 .1-.1.1s-.2 0-.2.1 0 .1.2 0l.2-.2zm-3.4.3c.2 0 .2 0 0 0-.1-.2-.2-.2-.3-.1-.2.2-.2.3 0 .2.1-.1.2-.1.3-.1zm.3-.2v-.2c.1-.1 0-.1-.2-.1-.2.1-.2.1-.1.2.2.1.4.2.3.1zm64.8-3.8v.4c.1-.1.1-.3 0-.4zM34 28.7c0-.1.1-.1.2-.1s.2 0 .2-.1-.1-.1-.3-.1c-.2 0-.3 0-.2.1.1 0 .1.1.1.2zm8.9-.9c0-.1-.1-.2-.1-.2-.1.1-.1.4 0 .4.2 0 .2-.1.1-.2zM89 25.7s-.1-.1-.1-.2c-.1-.1-.1-.1-.1 0s0 .1.1.1c0 0 .1 0 0 .1-.1 0-.1.1.1 0-.1.1 0 0 0 0zm-3.7-.1c0-.1-.2-.1-.3-.2-.4 0-.4 0 0 .1.3 0 .3 0 .1.1-.2.1-.2.1.1.1.1.1.2 0 .1-.1zm4-.2v-.1h.1c0 .1 0 .1.1.1l.1-.1c0-.1-.5-.1-.6 0 .1-.1.1 0 .3.1-.1 0-.1.1 0 0 0 .1 0 0 0 0zm-54.2 2.5c-.1 0-.1 0 0 0 .2 0 .2 0 .3-.1 0-.1.1-.1.2-.1s.2 0 .3-.1c.2-.1.2-.2.1-.3-.1-.1-.3 0-.3.2 0 .1 0 .1-.3.2-.3 0-.5.1-.3.2zm10.1-.8c0-.1 0-.2-.1-.2 0 0-.1.1-.1.2.1.3.2.2.2 0zm39.4-1.8c0-.1-.1-.2-.1-.2-.1 0-.1 0 0 .1 0 .1 0 .1-.1 0-.1 0-.1 0-.1.1 0 .2.3.2.3 0zm-69.3 3.2c-.1-.2 0-.2.2 0 .1.1.1.1.1 0v-.2c.1 0 .1 0 0-.1s-.1-.1-.3 0c-.1.2-.1.3 0 .3 0 .2 0 .2 0 0zm26.3-1.2s-.1-.1-.2-.1-.1 0-.1-.1 0-.1 0 0c-.1 0-.1.1 0 .2 0 .1 0 .1-.2 0H41c.1.1.7.1.6 0zm48.3-2.4c.1 0 .2 0 .2.1s.2.1.3-.1c.2-.2.2-.2-.1-.2-.2 0-.2.1-.2.2s0 .1-.1 0c.1-.1 0-.1-.1 0-.1 0-.1 0 0-.2s.1-.2-.1 0c-.1.1-.2.2-.2.3 0 .1 0 .1.1 0 0-.1.1-.1.2-.1zM84 25c-.1-.1 0-.1 0 0 .1 0 .2 0 .1-.1s-.6 0-.6.1h.3s0 .1.1.1c.1.1.1 0 .1-.1zm-39.2 1.5c-.1-.2-.1-.2 0 0-.1 0-.2.1-.2.2-.1 0 0 .1.1 0s.1-.1.1-.2zm54.1-3.1c0-.1-.1-.1 0 0-.1.1-.1.3-.1.4 0 .1 0 .1.1 0v-.4zm-16 .8c0-.2 0-.2-.2-.1-.1.1-.2.1-.1.2.2.2.3.1.3-.1zm-66.5 3.3c0-.1.1-.1.2-.1s.1 0 0-.1-.1-.1-.2 0c0 .1-.1.2-.2.2-.1.1-.1.1 0 .1s.2 0 .2-.1zm21.1-1.2h-.2c-.1 0-.3.1-.3.1 0 .1.4 0 .5-.1zm45-2.3c0-.1-.1-.2-.1-.2s-.1 0-.2-.1c-.1 0-.1 0-.1.1s0 .1.1.1c0 0 .1 0 .2.1.1.2.2.2.1 0zm9.1-.8v-.7c-.1.2-.1.2-.1 0 0-.1-.1-.2-.1-.2s0 .2.1.3c.2.2.2.3.1.3 0 0-.1 0-.2.1-.1 0-.1.1 0 .1s.1.4 0 .5c0 0-.1.1-.1.2 0 0 .3-.5.3-.6zm-9.7.4c-.1 0-.1-.1-.1-.2s0-.1 0 0c-.1.2-.1.4.1.2 0 .1 0 .1 0 0zM43 25.3c-.1-.1-.2-.1-.3-.1-.2 0-.1 0 .1.1.3.2.3.2.2 0zm-3.1.2s-.1 0-.3-.1h-.2c.1.1.5.1.5.1zm52.3-3.2c-.1-.1-.1 0-.1.2.1.2.1.2.1 0 .1 0 .1-.1 0-.2zm-10.8.4s0-.1-.1-.1-.1 0-.1.1.1.1.1.1.1 0 .1-.1zm-.3-.5c-.1-.1-.1-.2-.1-.2.1-.1.1-.1-.1-.3-.1-.1-.1-.2-.1-.2 0 .1 0 .1.1.2 0 .1.1.2 0 .2-.1.1-.1.5 0 .4.1 0 .1 0 0 .1v.1c.2 0 .2-.1.2-.3zm-62.7 2.5s-.1-.1-.2-.1-.1 0 0 .1c.1.2.3.2.2 0zm.5-.6c.1-.1.1-.1 0-.1s-.2.1-.2.1c-.1.2.1.1.2 0zm61.6-4c-.1-.1-.1-.1-.1.1-.1.3 0 .5.1.3v-.4zm-59.3 3.1c0-.1-.2 0-.2.1s0 .1.1 0l.1-.1zm70.9-3.5c0-.1 0-.1-.1-.1 0 0-.1.1-.1.2s.1.1.1.1c.1 0 .1-.1.1-.2zm5.5-.2c0-.1 0-.1 0 0 0-.1-.1-.1-.2-.1-.1-.1-.2 0 0 .1.1.2.1.2.2 0zm-6.2.1c0-.1 0-.2-.1-.2 0 0-.1 0 0 .1v.2c-.1 0-.1.1 0 .1s.1.1.1.1v-.3zm-10.9-.2c0-.2-.2-.6-.2-.4v.3c0 .1 0 .1.1 0s.1-.1.1.2v-.1zm10.8-.4c0-.1 0-.1-.1-.1s-.1 0-.1-.1 0-.1.1-.1.1 0 0 0c-.1-.1-.2-.1-.3-.1-.2 0-.2 0 0 .1.1.1.2.1.1.1s.2.3.3.3V19zm.4 0c0-.1 0-.1-.1-.1l-.1.1c0 .1.1.1.1.1.1 0 .1 0 .1-.1zm-27.1 1s0-.1 0 0c.1-.1.1-.1 0-.2s-.1-.1-.1-.3c.1-.1.1-.2 0-.1-.1 0-.1 0-.1-.1v.1c0 .2.1.4.1.4s.1.1 0 .2c0 0 0 .1.1 0 .1.1.1.1 0 0zm-43.5 1.9c0-.1-.1-.1-.2-.1s-.2 0-.1.1c0 .1.1.1.2 0 0-.1 0-.1.1 0zm49.4-2.5c-.1-.1-.2-.1-.2 0s0 .1.1.1c.2 0 .2 0 .1-.1zM30 21.2v.2c0 .1 0 .1.2-.1 0-.1 0-.1-.2-.1 0-.1-.1-.1-.2.1s-.1.2 0 0c.1-.1.2-.1.2-.1zm35.4-1.7c.1-.1.1-.1 0-.1s-.1 0 0 .1c-.1 0-.2.1-.2.1-.1 0-.1.1 0 .1 0-.1.1-.1.2-.2zm.3-.3c0-.1 0-.3-.1-.3-.1-.1-.1-.1 0 0s.1.2 0 .4v.2c.1 0 .1-.2.1-.3zm-35.4 1.7c0-.1-.1-.2-.2-.3-.2-.2-.2-.2 0 0 .1.1.1.2.1.3-.1.1 0 .1 0 .1.1.1.1 0 .1-.1zm60.3-3.1c0-.3-.1-.2-.1 0v.2c.1 0 .1-.1.1-.2zm-68.9 3.3h-.3c-.1-.1-.1-.1-.1 0s.3.2.4 0zm7.2-.3s0-.1-.1-.2-.1-.2-.1-.2c0-.1 0 0-.1.1s-.2.1-.2.1h-.1v.2c0 .1.1.1.3.1.1-.1.2-.1.3-.1zm-7.1 0c0-.2-.1-.2-.2-.1s-.1.1 0 .1h.2c0 .2 0 .2 0 0zm68.8-3.4c-.1-.1-.2-.1-.2.1 0 .1 0 .1.1 0 0-.1.1-.1.1-.1zm-60 2.8s-.1-.1-.2-.1c-.2 0-.2 0-.1.2.1.1.1.2.2.1s.1-.2.1-.2zm-2.5-.1s-.1-.2-.2-.3c-.1-.1-.2-.1-.1-.1.2.2.1.3-.1.1l-.2-.2h-.2c-.1 0-.2.1-.2.1 0 .1.4.3.5.2h.1c0 .1.1.1.2 0 .1.1.2.1.2.2-.1.1-.1.1 0 0-.1.1 0 .1 0 0zm13.3-.6s0-.1.1-.1.1 0 .1-.1c-.1 0-.1-.1-.1-.1 0-.1 0-.1.1 0 .1 0 .1 0 0-.1 0-.1-.1-.1-.1 0s-.1.1-.2 0c-.1 0-.2-.1-.2-.1-.1 0 0 0 .1.1.2.1.1.3 0 .3 0 0-.1-.1 0-.1v-.1c-.1 0-.1.1-.1.2s.1.1.2.1c-.1-.1 0 0 .1 0 0 .1.1.1 0 0zm24.8-1.3c0-.1-.1-.1-.1-.1l-.1.1c0 .1 0 .1.1.1s.2-.1.1-.1zM96 16.5c0-.1-.1-.2-.1-.2h-.2c-.1-.1-.1-.1-.1.2.1.3.1.4.1.2 0-.3.2-.2.2.1 0 .1 0 .2.1.1.1-.2.1-.3 0-.4zm-14.8.7c-.1-.1-.1-.1.1-.2.1-.1.1-.1 0-.1h-.2c-.1-.1-.1-.1-.1.1 0 .1 0 .2.1.2 0 0 0 .1.1.2h.1c-.1-.1 0-.1-.1-.2zM39.4 19s-.1-.1-.2-.1c-.2 0-.2.1-.1.1.2.1.3.1.3 0zm26.9-1.3c-.2-.1-.3-.2-.3 0 0 0 .1.1.2.1h.2c.1 0 0-.1-.1-.1zm-43 1.9c-.1 0-.2 0-.2-.1-.1-.1-.1-.1-.1 0s.1.1.2.1c.1.1.1.1.1 0zm3.1-.1s-.1-.1-.2-.1c-.2-.1-.2-.1-.2 0s.1.1.2.1h.2zm.5-.1c-.1-.1-.1-.1 0-.2h-.2c-.3 0-.3 0-.3-.1 0-.3-.1-.5-.2-.6-.1-.1-.1-.1 0 .1.1.1 0 .2-.1.1l.1.1c.1.1.2.2.2.3 0 0-.1 0-.1-.1-.1-.1-.1-.1-.1 0s.1.2.1.2l.2.2c.1.2.5.1.4 0zm39.4-2c-.1-.1-.1-.2 0-.2h-.1c-.2.1-.2.3-.1.2.1-.1.1-.1.2 0v.2c.1-.1.1-.1 0-.2zm23.3-1.1c-.2-.1-.3-.1-.3 0s.1.1.3 0c.1.1.1.1 0 0zm-48.1 2.2c-.1-.1-.1-.2 0-.2s.1 0 0-.1-.6-.1-.6.1c0 .1.1.1.2 0 .2-.1.2-.1.1.1-.1.1-.1.1 0 .1.1-.1.2 0 .3 0 0 .1 0 .2.1.2 0 0 0-.1-.1-.2zm-12.2.3c.2-.2.3-.4.1-.4 0 0-.1 0-.1.1s-.2.4-.3.3v.1c0 .2.1.2.3-.1zM89 16c.1 0 .1 0 0 0l-.1-.1s-.1-.1-.2-.1c-.2 0-.2 0-.1.1.1 0 .1.1.1.2s0 .1.1 0c-.1 0 .1-.1.2-.1zm-63.3 2.6c-.1-.1-.1-.2 0 0 .1-.1.2-.1.2-.2s0-.1-.2 0c-.1 0-.2.1-.2 0s-.2.2-.2.3v.1l.1-.1s0-.1.1-.1.1 0 .1.1c0 0 0 .1.1 0 0 0 .1 0 .1.1s0 .1.1 0c-.1 0-.2-.1-.2-.2zm12.3-.5c-.1-.1-.2-.1-.2-.1-.1 0 0 0 .1-.1.2-.1.1-.1-.2 0-.3 0-.5 0-.5-.1 0 .1.1.2.5.2.3 0 .4.1.3.1-.1.1-.1.1.1.1 0 .1 0 0-.1-.1zm11.9-.5s0-.1-.1-.1h-.1v.1c-.1 0-.1-.1-.1-.3 0 0 0-.1-.1 0-.1 0-.1.1 0 .2.1.2.4.3.4.1zm45.4-2.3c-.1-.2-.2-.2-.1 0 .1.1.1.1-.1 0-.1-.1-.2-.1-.2 0s.1.2.3.2c.1 0 .2-.1.1-.2zm-7.4.2c-.1-.1-.2 0-.2.1s.1.1.1 0c.1 0 .1 0 .1-.1zm-47.1 2.2c-.1-.1-.1-.2 0-.2 0 0 0-.1 0 0-.2.1-.2.3 0 .2zM67 16.6c.1.1.1 0 0-.1-.1-.3.1-.5.3-.4.2 0 .2 0 0-.1-.1-.1-.2-.1-.2 0s-.1.1-.1 0l-.1.1c0 .1-.1.2 0 .2v.1s-.1.1-.1.2 0 .1.1 0c0-.1 0-.1.1 0zm15.2-.9c-.2-.1-.2-.1 0 0 .2 0 .3 0 .1-.1-.1-.1-.1-.1 0-.1s.2 0 .2.1c0-.1 0-.2.1-.2.1-.1.1-.1 0-.1s-.2.1-.3.1c-.1.1-.1.1-.2.1H82v.2c0 .2 0 .2.2.2.1-.1.1-.1 0-.2zm6.1-.3c.1-.1 0-.2 0-.2-.1 0-.1.1-.1.2v.2s0-.1.1-.2zm-37.6 1.8c.1-.1.1-.1 0 0-.1 0-.2 0-.2-.1 0 0 0-.1-.1-.1s-.1 0 0 .2c.2.2.2.2.3 0zm6.6-.4v-.1c-.2 0-.2 0-.1-.1s.1-.1 0-.1c-.2 0-.2.1-.1.4.1.1.2.1.2-.1zM95 15c-.1 0-.1 0-.1-.2s0-.2-.2-.2c-.1 0-.2 0-.2.1 0 0 .1.1.1 0 .1 0 .1 0 .1.1.1.3.2.4.3.2zm-37.2 1.5c0-.2 0-.4-.1-.4 0 0-.1.1 0 .4 0 .5.1.5.1 0zm-28.5.9c0-.3-.2-.2-.2.2-.1.6-.1.7.1.3 0-.2.1-.4.1-.5zm7.4.1s.1-.1.2 0c.2 0 .1 0-.1-.1-.1-.1-.3-.1-.3-.1s0 .1.1 0c.1 0 .1 0 0 .1-.2.2-.3.2-.2 0 0-.1 0-.1 0 0-.1 0-.1.1 0 .2 0 .1.1.1.3 0v-.1zm12.1-.7s-.1-.1-.2-.1-.1 0 0 .1.1.1 0 .1-.1 0 0 .1c0 .1.1.1.1 0 .1-.1.1-.2.1-.2zm8-.4c-.1-.1-.1-.1 0-.3.1-.1.1-.1 0-.1s-.1 0-.1-.1 0-.1-.3 0c0 0 0 .1.1.1.1.1.1.2.1.2 0 .1 0 .1.2.2v.2c0 .1 0 .1.1 0 0-.1 0-.1-.1-.2zm-6.6.3c-.1-.2-.2-.3-.2-.2 0 .1.2.4.2.4.1 0 .1-.1 0-.2zm-9.4.5s-.1-.1-.1-.2c-.1-.1-.1-.1-.1 0v.2h.1c0 .1.1 0 .1 0zM84.1 15c0-.1 0-.1-.1-.1h-.7c.1 0 .1 0 0 .1s0 .1.2 0h.2c-.2.1-.2.1.1.1.2 0 .3 0 .3-.1zm1.8 0c.1.1.2.1.2 0 .1-.1.1-.1 0-.1s-.2 0-.3-.1c-.2-.1-.5-.1-.4.1 0 .1.1.1.2 0 .1 0 .2 0 .3.1zm8.6-.5c.1 0 .1 0 0 0 .1-.1.1-.1 0-.1l-.1-.1c0-.2-.1-.1-.1.2v.1c.1-.1.2-.1.2-.1zM36 17.3s0-.1.1-.2.1-.1 0-.1-.1.1-.1.1 0 .1-.1.2-.1.1 0 .1.1-.1.1-.1zm31.7-1.7c-.1-.1 0-.1 0 0 .1 0 .2 0 .1-.1 0-.1-.1-.1-.1 0 0 0-.1 0-.1-.1v.1c0 .2 0 .2-.1.1-.1 0-.2 0-.2.1 0 0 .1.1.1 0h.2c0 .2.2.1.1-.1zm17.3-.8c.2-.1.3-.1.2-.1-.1 0-1 .3-1 .4.1 0 .4-.1.8-.3zM40.3 17c0-.1 0-.1.1-.1s.1-.1.1-.2c0-.2 0-.2-.1 0-.2.2-.3.3-.1.3-.1.2 0 .1 0 0zm9.6-.8c-.1-.1-.1-.1 0-.1 0 0 0-.1-.1-.1-.2-.1-.2-.1-.1 0 0 .1.1.2.1.3 0 .3 0 .3.1.2.1-.1.1-.2 0-.3zm.8.1s-.1-.1-.1-.3c0-.2-.1-.2-.1-.1s0 .2.1.4c.1.1.2.2.2.1-.1 0-.1-.1-.1-.1zm-15 .8c.1-.1.1-.1-.1-.2-.1-.1-.2-.1-.3-.1 0 0-.1 0-.1-.1 0 0 0-.1-.1-.1 0 0-.1 0 0 .1 0 .1 0 .1 0 0-.1 0-.1-.1-.1-.1s0-.1-.1-.2-.1-.1-.1 0c.1.1 0 .1-.1.1s-.1 0-.1.1.1.1.1.1.1 0 .2.1h.2c.1 0 .1 0 0 .1 0 .1 0 .1.1 0s.2-.1.2 0c.1.1.1.1 0 .1s-.1 0-.1.1c.2.1.3.1.4 0zm28.6-1.9v-.7c0 .1-.1.1-.1 0v1.1c.1.2.2 0 .1-.4zM48 16.3c0-.1 0-.1.1-.1s.1 0 0-.1c0-.1-.1-.1-.1 0s-.1.1-.1.1-.1 0-.1.1 0 .2.1.2c.1-.1.2-.2.1-.2zm-.5-.5v-.3c.1 0 .1 0 .1.1 0 0 0 .1.1 0 .1 0 .1-.1 0-.2s-.1-.1-.2 0-.1.1-.1.2c0 0 0 .1-.1 0-.1 0-.1 0-.1.1s.1.1.1.1c.1 0 .1 0 .1.1v.1c.1.1.1-.1.1-.2zm-7.5.5v-.2c.1-.1-.1-.5-.2-.5s0 .1.1.2c.2.2.2.3.1.2h-.1v.2c-.1.1-.1.1.1.1zm53.8-2.8c0-.1 0-.1-.1-.1s-.1.1-.1.1c-.1.2.1.2.2 0zm-35.1 1.6c0-.1 0-.3.1-.3s.1-.1 0-.2-.1-.1-.3.1c-.1.1-.1.3-.1.3 0 .1 0 0 .1 0 .1-.1.1-.1.1 0 0 .3 0 .4.1.4-.1-.1 0-.2 0-.3zm-24.2 1.2c-.1-.2-.3-.3-.5-.2-.1.1-.1.1 0 .2h.2c0-.1.1-.1.1-.1.1 0 .1 0 0 .1 0 .1 0 .1.2.2v-.2zm59.1-3.1l-.2-.2c-.1 0 .2.3.3.3.1 0 0 0-.1-.1zm-35.2 1c0-.4 0-.5.1-.3.1.1.1.1.2-.1.2-.3.1-.3-.2-.1-.2.1-.3.1-.2-.1 0 0 0-.1-.1 0-.1 0-.1.1 0 .2s.1.2 0 .3c-.1.1-.1.2 0 .2s.1.1 0 .1-.1.1-.1.2c0 .2.3-.2.3-.4zm-8.7.5c0-.1-.1-.1 0 0-.1.1-.1.1-.2 0s-.1-.1 0 0 .1.2.1.2h.1c-.1-.1 0-.2 0-.2zm-16.2.8c-.1-.1-.1-.1 0 0 .1 0 .2.1.3.1.2 0-.3-.2-.5-.2h-.1c.1 0 .1.1.1.2s0 .1.1.1.1-.1.1-.2zm13-.9c-.1-.1-.1-.1 0 0 .2 0 .2 0 .1-.1-.1-.2-.3 0-.1.1v.2c-.1 0-.1 0 0 .1 0 .1.1.1.1 0s0-.2-.1-.3zm3.4 0c0-.1-.1-.2-.1-.2s-.1 0 0-.1v-.1c-.1.1-.1.2 0 .3.1.3.1.3.1.1zm14.9-1c0-.2-.1-.1-.2.1l-.1.2.2-.2c-.1-.1 0-.1.1-.1zM33.1 15c-.1-.2-.1-.1-.2.1 0 .2 0 .2.1.1.1 0 .1-.1.1-.2zm6.1-.1c0-.3-.1-.3-.1 0 0 .1 0 .2.1.2v-.2zm53.2-2.5c0-.1-.2-.2-.2-.1-.1 0 0 .1.2.1zm-36.6 1.3v-.2c-.1-.1-.1-.1 0-.1s.2 0 .1-.1c0-.1-.1-.1-.1-.1-.1 0-.2.1-.2.1v.5c0 .2.1.4.1.2s0-.3.1-.3zm.4.2c-.1-.2-.2-.2-.1.1 0 .1.1.1.2.1l-.1-.2zm-23.4.9c-.1-.1-.4-.1-.3 0h.3c-.1.1-.1.1-.2.1h.1c.1.1.2 0 .1-.1zm13.4-.9c0-.2 0-.3-.1-.3s-.1 0 0 .1 0 .1-.1 0-.1-.2 0-.3c.1-.1.1-.1 0 0-.1 0-.2 0-.3-.2-.1-.1-.2-.3-.2-.3-.1 0-.1.1.2.3.1.1.1.2.1.2v.1c.2 0 .2 0 .1.3-.1.2-.1.2 0 .1s.2-.2.2-.1c0 0 0 .1-.1.2-.1.2-.1.2 0 .1h.2c-.2.3 0 .1 0-.2zm45.9-2.1c.1 0 .1 0 0 0 0-.1-.1-.1-.2-.1s-.1 0-.1-.1v-.1s-.1.2-.1.3c0 .2 0 .2.1.1s.2-.2.3-.1zm-59.8 2.7c0-.1-.1-.2-.1-.3-.1 0-.1-.1-.1-.2v-.1c-.1.1-.5-.3-.5-.4 0-.2-.1-.3-.2-.1-.1.1-.1.2 0 .3.2.2.2.3 0 .2-.1 0-.1 0 0 .1.1.2.2.2.1 0 0-.1 0-.1.1-.1s.1.1.1.2.1.1.1.1c.1 0 .1 0 .2.1s.1.2.1.2v.1c.2.2.2.2.2-.1zm26.5-1.1c.2-.2.2-.4 0-.4-.1 0-.1.1-.1.1s0 .1-.1.2-.1.2 0 .2.2-.1.2-.1zm-30.4 1.2c0-.1 0-.1.1-.1h.1v-.2c.1-.1 0-.1-.1 0-.3.2-.3.3-.1.3 0 .2 0 .2 0 0zm36.5-1.9c.1 0 .1-.1 0 0 .1-.1 0-.2-.1-.2s-.1.1-.1.2 0 .1.1.1c0-.1.1-.2.1-.1zM29 14.3c.1-.1.3-.2.2-.3 0-.1 0-.1-.1 0 0 .1-.2.2-.3.3-.2.2-.1.2.2 0zm26.8-1.4c-.1 0-.1-.1-.1-.2.1-.2-.1-.3-.2-.1 0 .1 0 .1.1 0s.1 0 .1.1c-.1.2 0 .4.2.4 0-.1 0-.2-.1-.2zm-16.6.7c0-.2 0-.2-.1-.1-.1.2-.1.4 0 .3.1 0 .1-.1.1-.2zM90.9 11c0-.1-.2-.2-.2-.1-.1 0 0 .2.2.1 0 .1 0 .1 0 0zm-45.4 1.7c-.3-.2-.4-.5-.1-.3l-.1-.1c-.2-.1-.3-.2-.3-.3 0 0 0-.1-.1-.1s-.1 0 0 .2c.1.1.1.2 0 .3h.1c.1 0 .1 0 .1.1s.4.6.6.6c.1-.2 0-.3-.2-.4zm14.1-.6c.1.1.1.1 0 0-.1-.2-.2-.2-.2-.1-.2.2-.3.1-.1-.1.1-.1.1-.2.1-.2-.1 0-.4.4-.3.5 0 0 .1 0 .3-.1 0 0 .1-.1.2 0zm11.1-.6c0-.2 0-.3 0 0-.2.2-.2.2-.1.2s.2-.1.1-.2zm-39.5 1.8c-.1-.1-.1-.1 0 0 .2 0 .2-.2-.1-.3-.1 0-.2 0-.1.1v.2c-.2 0 0 .1.2.1.1.1.1 0 0-.1zm24.5-1.5v-.3c-.1 0 0-.1.1-.1.1-.1.1-.1 0-.2h-.1v.1s-.1 0-.1-.1v.4c-.1.6 0 .6.1.2zm-17.4.8v-.3c-.1 0-.1 0-.1.1v.3c0 .1 0 .1.1.1.1-.1.1-.2 0-.2zm25.6-1.3l-.1-.1c-.1 0-.1.1-.1.1 0 .1.1.1.1.1 0-.1.1-.1.1-.1zm25.7-1.5c.1-.1 0-.1 0 0-.1 0-.1-.1-.1-.1 0-.1-.1-.1-.1-.1-.2 0-.2.3 0 .3h.2v-.1zm-26.1 1.1c0-.1-.1-.1-.1-.1-.1 0-.2.2-.1.3.1 0 .2-.1.2-.2zm25-2l-.1-.1c0 .2.1.4.2.3 0 0-.1-.1-.1-.2zm-50.6 2s.1 0 .1-.1l-.1.1c-.1 0-.2.1-.2.2s0 .1.1 0c0-.1.1-.2.1-.2zm11.7-.6c0-.2 0-.3-.1-.3 0 0-.1-.1 0-.1 0-.1 0-.1 0 0-.1.1-.1.8 0 .8 0-.1.1-.2.1-.4zm11.7-.4c0-.2-.1-.2-.3 0 0 .1 0 .1 0 0s0-.1-.1-.1-.1 0-.1.1 0 .1-.1.1-.2 0-.2-.1 0-.1-.1 0c0 .1.2.1.5.1s.4 0 .4-.1zm26.6-1.3s-.2-.2-.4-.3c-.2-.1-.3-.1-.2 0 .1.1.2.2.3.2.1 0 .2.1.1.1v.1c.2 0 .2 0 .2-.1zm-26.1.9c0-.1 0-.1-.1-.1l-.1.1c0 .1.1.1.1.1 0 .1.1 0 .1-.1zm-6.1 0v-.4c.1-.2.1-.3-.1-.2-.1 0-.1.2-.1.4v.2c.1-.1.1-.1.2 0zm-11.5.3c-.1-.1-.1 0-.1.2s0 .2.1.1c.1-.2.1-.2 0-.3zm5.3-.3v-.2.2c-.1.1-.1.1-.2.1 0-.1 0-.1-.1-.1-.1.1 0 .2.2.2.1 0 .1-.1.1-.2zm36.2-2.3c.1-.1.1-.1-.1-.2-.1-.1-.2-.1-.3 0-.1 0-.1 0-.2-.1 0-.1-.1-.1-.1 0s.1.1.1.2c.1.1.1.1 0 .2.1.1.4 0 .6-.1zm-1-.7c0-.1 0-.1 0 0-.2.1-.2 0-.6-.3-.1-.1-.2-.1-.2 0s.5.5.7.5c0 0 .1-.1.1-.2zM50.2 7.7v-.1c-.1-.1-.1-.2-.1-.3 0-.1 0-.1-.1 0s-.2.2-.2.3c-.1.1-.1.2.4.1zm32.3-2c-.1-.1-.3-.2-.3-.2s-.1-.1-.3-.1c-.2-.1-.2-.1 0 .1.3.2.5.3.7.3.1 0 .1 0-.1-.1zM50.2 6.8c-.1-.1-.1-.2-.1-.1 0 .2.1.4.2.4 0 0-.1-.1-.1-.3zm5.9 0c0-.2 0-.4.1-.4 0 0 .1-.1 0-.2 0-.2-.1-.2-.1.2-.2.5-.2.4 0 .4zm-15.9.4c-.1 0-.1 0 0 0 .1-.1.1-.2 0-.3-.1 0-.1 0-.1.2s0 .2.1.2.1 0 0-.1zm40.7-2.5s-.1-.1-.2-.1-.2 0-.2.1.3.1.4 0zm-26.2 1s0-.1.1-.1.1 0 0-.1c-.2-.1-.3-.1-.2 0 0 .1 0 .1-.1 0h-.2l.1.1c.3.3.4.2.3.1zm-11.5.5c0-.1-.2-.1-.5 0-.1.1-.1.1.2.1.2 0 .3 0 .3-.1zm.6-.1c.1-.1.1-.1-.1-.1-.1 0-.2.1-.2.1 0 .1.1.1.1.1.1 0 .2-.1.2-.1zm9.6-.7s-.1-.1-.2-.1c-.1-.1-.2-.1-.2 0s.1.1.2.1c.1.1.2 0 .2 0zM79 4h-.2c-.1 0-.2.1-.1.1.1.1.3-.1.3-.1zM44 5.7c0-.1 0-.1 0 0-.1 0-.2.1-.3.1-.1.1-.1.1 0 0 .1 0 .2-.1.3-.1zm8.2-.4c-.1-.1-.6-.1-.6 0s.2.1.3.1c.2-.1.3-.1.3-.1z"/><path class="main-textlogo" d="M28.3 20.7s0-.1 0 0c.1 0 .2 0 .2-.1 0 0 .1-.1.1 0 .1 0 .1.1.1.1.1.1-.2.1-.4 0zm42.1-1.8v-.1c0-.1.1 0 .1.1.1.1 0 .1-.1 0 0 .1 0 .1 0 0zm-5.6-7.5l-.3-.3.2.2c.1.1.3.2.3.3l-.2-.2z"/><path d="M86.6 25.5h-.8c0-.1-.1-.1-.1 0-.1 0-.2 0-.3-.1-.1-.1-.2-.1-.3-.1-.1 0-.2 0-.3-.1-.1-.1-.3-.2-.4-.2-.1 0-.2-.1-.2-.1 0-.1-.1-.1-.1-.1s-.2-.1-.3-.2c-.1-.1-.4-.3-.5-.4-.3-.2-.6-.5-1-.9-.2-.2-.3-.4-.4-.4-.1 0-.1 0-.1-.1s-.2-.4-.4-.7c-.2-.3-.4-.7-.4-.9 0-.2-.1-.3-.1-.4 0-.1-.1-.6-.1-1.2 0-1 0-1.2.3-2.1.2-.4.6-1.2.8-1.2.1 0 .1-.1.2-.1.2-.3 1.2-.8 2.1-1 .9-.2 1.5-.2 2.4 0 1.6.4 3.4 1.7 4.2 3.2 1.1 2 1 4.1-.3 5.6-1.1 1.2-2.5 1.7-3.9 1.5zm-21.9-6.2c-.1-.7-.2-3.4-.2-3.9.1-.9.1-1.1.3-1.8.2-.7.6-1.6.7-1.6.1 0 .9.9 1.7 2l.7.8-.4.5c-.4.5-.8 1-1.5 2.1-.5.7-1.1 2.2-1.1 2.4 0 .1 0 .2-.1.2 0 0-.1-.3-.1-.7zm-35.6 1.1c-.6-.3-1.1-.6-1.3-.7-.2-.1-.3-.2-.3-.2-.2 0-2.5-2-2.6-2.2l.9-.9c1.4-1.3 1.6-1.5 1.7-1.3 0 .1.1.5.3.9.5 1.6 1.2 3.2 1.9 4.1l.5.7c-.1.1-.5-.1-1.1-.4zm11.8-1.5c-.1 0-.6-.2-1.1-.4-1-.3-2.9-1.1-3.7-1.6-.3-.2-.5-.3-.6-.3 0 0-.4-.2-.9-.6-1.4-1-3.5-3-3.8-3.7-.1-.2 1.1-1.1 3-2.3 1.3-.8 3.1-1.9 3.3-1.9.1 0 .2.4.2 1 .1.9.3 1.7.8 3.4.4 1.5 1.6 4 2.6 5.5.3.4.5.7.5.8.1.2-.1.1-.3.1zm8.8-1.7c-1-.7-2.8-2.5-3.4-3.4-1.2-1.9-1.7-3.2-2.1-5.1-.2-.9-.3-3.1-.2-3.2.2-.1 1.8-.4 3.2-.6 1.1-.1 3-.2 3.1-.1 0 0-.1.4-.2 1-.1.5-.3 1.2-.4 1.6-.1.4-.2.9-.3 1.1-.1.6-.3 1.9-.3 2.8v1.1c-.1.9.4 3.5.8 4.2.2.4.5 1.1.5 1.1-.1-.1-.4-.3-.7-.5zm7.7-.4c-.4-.8-.8-1.9-1.1-3-.3-1.1-.5-3.4-.4-4.5.1-1.4.6-3.3.9-3.3.4 0 3.6 1.6 4.6 2.4.2.1.1.2-.5 1-.7.8-1.6 2-1.7 2.4-.1.1-.2.3-.3.5-.3.3-.9 1.7-.9 1.9 0 .1 0 .2-.1.2-.1.2-.3 1-.3 1.9v.9l-.2-.4z" fill="#4c5bc2"/><path d="M86.3 25.4c-.4-.1-.9-.2-1.2-.3s-.5-.1-.6-.1c-.1 0-.2-.1-.3-.2 0-.1-.2-.2-.2-.2-.1 0-.2-.1-.3-.1-.1-.1-.3-.2-.4-.3-.3-.2-.6-.5-1-.9-.2-.2-.3-.4-.3-.4l-.2-.2c-.1-.1-.2-.3-.3-.5-.8-1.5-1-3.5-.3-4.6 0-.1.1-.2.2-.4s.7-1 .9-1.1c.1 0 .3-.2.5-.3.4-.3 1.7-.7 2.3-.7 1.1-.1 2.8.5 3.9 1.4 1.8 1.4 2.7 3.5 2.5 5.4-.2 1.6-1.5 3.1-3.1 3.5-.9.2-1.2.2-2.1 0zm-21.6-6.1c-.2-1-.3-3.4-.2-4.2.1-.4.2-.9.2-1.3.2-.6.7-1.9.8-1.9.1 0 .8.8 1.8 1.9l.7.8-.5.6c-1.2 1.4-2.1 3-2.6 4.5-.1.3-.1.2-.2-.4zm-35.6 1.1c-.5-.3-1.3-.7-1.8-1-.7-.5-2.4-1.9-2.4-2.1l.9-.9c1.4-1.3 1.6-1.5 1.7-1.3 0 .1.1.5.3.9.5 1.6 1.2 3.2 1.9 4.1l.5.7c-.1.1-.5-.1-1.1-.4zm11.5-1.6c-2.3-.6-4.7-1.8-6.5-3.1-1.2-.8-3-2.7-3.2-3.3-.1-.2 1.1-1.1 3-2.3 1.3-.8 3.1-1.9 3.3-1.9.1 0 .1.3.2.8.4 3 1.8 6.7 3.5 9.3.2.3.4.6.4.7-.1-.1-.4-.2-.7-.2zm9.1-1.5c-.8-.5-2.3-2-3-2.9C45 12 44.2 9.7 44 6.9V5.5c.2-.1 1.8-.4 3.2-.6 1.1-.1 3-.2 3.1-.1 0 0-.1.3-.2.7-.9 3-1.3 6.1-1 8.4.2 1.2.5 2.5.9 3.3.1.3.2.5.2.5.1-.1-.2-.3-.5-.4zm7.7-.5c-.4-.7-.7-1.6-1-2.7-.3-1.1-.6-3.5-.5-4.7.1-1.4.6-3.4.9-3.4.4 0 3.6 1.6 4.6 2.4.2.1.1.2-.4.8-1.2 1.4-2.1 2.8-2.7 4.2-.5 1.1-.6 1.8-.6 2.9v.9l-.3-.4z" fill="#c4cabc"/><path d="M86.6 25.5c-.2 0-.5-.1-.5-.2s-.3-.2-.6-.3c-1.8-.7-3.3-2.3-3.8-4.2-.6-1.9 0-3.9 1.5-5l.6-.4c.1 0 .1 0 .1-.1s.6-.3 1.1-.3c1.6-.1 3.8 1 5 2.4 1.1 1.3 1.6 3 1.4 4.4-.2 1.6-1.5 3.1-3.1 3.5-.7.3-1.1.3-1.7.2zm-21.9-6.2c-.2-1-.3-3.4-.2-4.2.1-.4.2-.9.2-1.3.2-.6.7-1.9.8-1.9 0 0 .4.4 2.2 2.5l.2.2-.5.6c-1.2 1.4-2.1 3-2.6 4.5 0 .3 0 .2-.1-.4zm-35.6 1.1c-1.6-.8-3-1.8-3.8-2.7l-.4-.4.3-.3c1.8-1.6 2.3-2 2.3-1.9 0 .1.1.5.3.9.5 1.6 1.2 3.2 1.9 4.1l.5.7c-.1.1-.5-.1-1.1-.4zm11.5-1.6c-2.3-.6-4.7-1.8-6.5-3.1-.9-.7-2.2-1.9-2.8-2.7l-.5-.6.2-.2c.1-.1.3-.2.3-.2l.6-.4c.7-.5.6-.5 2.7-1.8.3-.2 2.5-1.4 2.6-1.4 0 0 .1.3.2.8.4 3 1.8 6.7 3.5 9.3.2.3.4.6.4.7-.1-.3-.4-.4-.7-.4zm9.1-1.5c-.3-.2-1-.8-1.5-1.3-2.7-2.6-4.2-6-4.3-9.8v-.7l.6-.1c.4-.1.8-.2.9-.2.7-.2 4.6-.5 4.7-.4 0 0 0 .3-.2.7-.9 3-1.3 6.1-1 8.4.2 1.2.5 2.5.9 3.3.1.3.2.5.2.5.3-.1 0-.3-.3-.4zm7.7-.5c-.4-.7-.7-1.6-1-2.7-.3-1.1-.6-3.5-.5-4.7.1-1.4.6-3.4.8-3.4.1 0 1.8.7 2.3 1 .2.1.4.2.5.3.1 0 .5.3 1.6.9.2.1.4.3.4.3s-.2.4-.6.7c-1.2 1.4-2.1 2.8-2.7 4.2-.5 1.1-.6 1.8-.6 2.9v.9l-.2-.4z" fill="#fcfcfd"/><path class="st10" d="M98.3 30.9c4.7 2.7 8.3 4.8 10.8 6.3 19.8 11.3 57.2 30.8 57.8 29.7.9-1.7 1.2-3.1.8-4.1.3.9-3.8-.2-12.2-3.3-8.1-2.9-27-12.9-56.7-29.8l-.5 1.2z"/><path class="st11" d="M153.4 61.1c-19.7-10-54.3-29.2-55.3-29.7-.2-.1 0-.5.4-1.2 0 1.7 35.9 20.8 55.7 30.5 4.3 2.1 13.2 5.1 13.4 4.1.1-.3-.4 1.4-.8 2-.1.2-1.7.2-13.4-5.7z"/><path class="st10" d="M152 54.4l-.3 1c2 .9 4.5 1.7 7.4 2.4 2.9.7 5.9 1.3 9 1.6.4-.4.5-.9.4-1.6 0-.1-5.1-.5-10.6-2-2.9-.8-4.7-1.8-5.3-2.8l-.6 1.4z"/><path class="st11" d="M151.8 55.8c.1.6 11.6 4 13.5 4.5 1 .2 1.9.4 2.9.4l.4-2c-1.4.8-7.3-.4-10.3-1.2-2.5-.7-6.3-2.2-6.3-3.1-.2.5-.2 1-.2 1.4z"/><path class="st10" d="M153.3 49.9l-.3 1c2 1 4.4 1.8 7.3 2.4 11.3 2.4 15.8 1.7 13.4-2-.4.9-1 1.4-1.6 1.6-1.6.5-2.3.6-3.3.6-4.1.1-5.8-.6-10.2-1.8-2.5-.7-4.1-1.8-4.9-3.3l-.4 1.5z"/><path class="st11" d="M153 51.3c.1.6 11.6 4 14.6 4.1 6 .1 8.1-1.3 6.1-4.1.7 1.1.1 1.9-1.6 2.4-4.5 1.4-9.7 0-12.6-.8-2.5-.7-6.2-2.2-6.3-3.1-.1.6-.2 1.1-.2 1.5z"/><path class="st12" d="M172.9 51.8c-.6-.1-.9-.1-1.1-.1-1-.1-.2-1.9.4-.9.4.5.6.9.7 1zm.4-.9c-.6-.4-1-.7-1.1-.8-.9-1.2 1.6-1.1 1.3-.4-.2.4-.3.8-.2 1.2z"/><path class="st12" d="M174.2 51.1c-.1-.1-.2-.3-.4-.4-.8-.7.7-.8.7-.3-.1.4-.2.7-.3.7z"/></svg>