<svg xmlns="http://www.w3.org/2000/svg" xmlns:xlink="http://www.w3.org/1999/xlink" width="1920" height="443.5" viewBox="0 636.5 1920 443.5"><defs><path id="a" d="M0 431.35h1920V1080H0z"/></defs><clipPath id="b"><use xlink:href="#a" overflow="visible"/></clipPath><g clip-path="url(#b)"><path d="M-111.983 831.734c201.035 83.144 426.27 104.858 675.703 65.153 374.148-59.567 543.536-81.905 886.042-63.29 228.342 12.406 479.635-139.607 753.885-456.054l-297.83 830.201C589.159 1182.928-73.516 1163.691-82.2 1150.037c-8.688-13.648-18.614-119.75-29.783-318.303z" opacity=".14"/><path fill="#303F8B" d="M-111.983 831.734c201.035 83.144 426.27 104.858 675.703 65.153 374.148-59.567 543.536-81.905 886.042-63.29 228.342 12.406 479.635-139.607 753.885-456.054l-297.83 830.201C589.159 1182.928-73.516 1163.691-82.2 1150.037c-8.688-13.648-18.614-119.75-29.783-318.303z"/><path fill="#4352AF" d="M-50.342 960.173c261.29 70.735 427.977 106.723 500.054 107.966 137.208 2.358 303.126-52.121 552.188-52.121 166.044 0 349.455 37.229 538.673 37.229 314.702 0 477.983-256.789 648.722-55.844 63.938 75.254 45.461 278.295 88.813 256.879l-247.135 279.217C665.311 1508.68-22.026 1489.448-31.035 1475.795c-9.01-13.65-15.446-185.524-19.307-515.622z"/></g></svg>